/* XPM */
static char *image[] = {
"48 48 483 2",
"   c None",
"00 c #00000a",
"10 c #000012",
"20 c #0c0c17",
"30 c #262348",
"40 c #353366",
"50 c #42407f",
"60 c #464385",
"70 c #262453",
"80 c #06053f",
"90 c #171736",
":0 c #030308",
";0 c #141426",
"A0 c #373368",
"B0 c #4e4a94",
"C0 c #282658",
"D0 c #070745",
"E0 c #232168",
"F0 c #5652a4",
"G0 c #454184",
"H0 c #29284e",
"I0 c #06060d",
"J0 c #000000",
"K0 c #211f40",
"L0 c #49458c",
"M0 c #1e1d4b",
"N0 c #090a4a",
"O0 c #504c9f",
"P0 c #3b3870",
"Q0 c #0e0c19",
"R0 c #48468b",
"S0 c #1b1a47",
"T0 c #08094f",
"U0 c #32307b",
"V0 c #5651a4",
"W0 c #363569",
"X0 c #1a1a44",
"Y0 c #02023f",
"Z0 c #0b0e56",
"a0 c #16165d",
"b0 c #5652a7",
"c0 c #5552a2",
"d0 c #191843",
"e0 c #0e115c",
"f0 c #0e105b",
"g0 c #4c4996",
"h0 c #6c68b3",
"i0 c #31304d",
"j0 c #01013d",
"k0 c #101360",
"l0 c #121565",
"m0 c #504f85",
"n0 c #a4a3d0",
"o0 c #8b87c4",
"p0 c #cac9e4",
"q0 c #f0f0f7",
"r0 c #646576",
"s0 c #47486c",
"t0 c #101462",
"u0 c #171b70",
"v0 c #333571",
"w0 c #f8f8fa",
"x0 c #ecebf5",
"y0 c #c6c5e2",
"z0 c #a7a5d2",
"01 c #605cad",
"11 c #4b4b5b",
"21 c #282c62",
"31 c #797ca6",
"41 c #171a67",
"51 c #817eaf",
"61 c #9f9ece",
"71 c #9995c9",
"81 c #4f4f5d",
"91 c #02023d",
":1 c #0f125e",
";1 c #30347f",
"A1 c #8483a4",
"B1 c #a8a6d1",
"C1 c #9a96ca",
"D1 c #908cc4",
"E1 c #706cb6",
"F1 c #6966b2",
"G1 c #615cac",
"H1 c #f7f7fb",
"I1 c #595963",
"J1 c #03033c",
"K1 c #0d0f59",
"L1 c #202684",
"M1 c #1e2480",
"N1 c #505284",
"O1 c #fdfdfd",
"P1 c #eae9f4",
"Q1 c #bab7da",
"R1 c #6764b1",
"S1 c #2f2e50",
"T1 c #030338",
"U1 c #0a0c53",
"V1 c #202785",
"W1 c #262e8f",
"X1 c #2e3175",
"Y1 c #ebebf0",
"Z1 c #aeacd6",
"a1 c #7470b6",
"b1 c #2e2d51",
"c1 c #030334",
"d1 c #06074a",
"e1 c #1f2683",
"f1 c #303a9d",
"g1 c #1c2176",
"h1 c #908fb8",
"i1 c #e8e7f3",
"j1 c #b0aed7",
"k1 c #5854a9",
"l1 c #2d2b54",
"m1 c #040432",
"n1 c #010240",
"o1 c #1d237e",
"p1 c #3843a9",
"q1 c #202783",
"r1 c #5f5d9b",
"s1 c #908cc5",
"t1 c #9591c8",
"u1 c #9995ca",
"v1 c #3e3b77",
"w1 c #08082f",
"x1 c #191f76",
"y1 c #3c48af",
"z1 c #2b3395",
"02 c #414189",
"12 c #8480bf",
"22 c #8b87c2",
"32 c #8785c1",
"42 c #bdbcdd",
"52 c #625eae",
"62 c #524f9c",
"72 c #0c0c2f",
"82 c #15196c",
"92 c #3c48ae",
":2 c #3844a9",
";2 c #2f307e",
"A2 c #7a75bb",
"B2 c #8c89c5",
"C2 c #e3e2f0",
"D2 c #131132",
"E2 c #101361",
"F2 c #3742a7",
"G2 c #4654bd",
"H2 c #262980",
"I2 c #5956a6",
"J2 c #625fae",
"K2 c #6663b0",
"L2 c #6a66b2",
"M2 c #6d69b3",
"N2 c #6966b1",
"O2 c #6562b0",
"P2 c #605dad",
"Q2 c #5c57aa",
"R2 c #5e5aac",
"S2 c #d1d0e8",
"T2 c #f6f6fa",
"U2 c #181738",
"V2 c #01013b",
"W2 c #0a0d54",
"X2 c #2e389b",
"Y2 c #5363cf",
"Z2 c #272c89",
"a2 c #4f4c9e",
"b2 c #5b57ab",
"c2 c #5e5aaa",
"d2 c #605bac",
"e2 c #5d58ab",
"f2 c #5a56aa",
"g2 c #7875b9",
"h2 c #edecf5",
"i2 c #6662b0",
"j2 c #3b3a5a",
"k2 c #2b2b58",
"l2 c #050647",
"m2 c #6e719e",
"n2 c #606fd5",
"o2 c #2f3699",
"p2 c #4c499a",
"q2 c #a5a3d1",
"r2 c #1f1f47",
"s2 c #01013c",
"t2 c #30315b",
"u2 c #747693",
"v2 c #7580cb",
"w2 c #3944aa",
"x2 c #3f3d90",
"y2 c #fcfcfe",
"z2 c #262450",
"03 c #02023b",
"13 c #5c5f8a",
"23 c #9399c6",
"33 c #8b93ca",
"43 c #403f92",
"53 c #6a67b2",
"63 c #7673b8",
"73 c #a5a3d0",
"83 c #dad9ec",
"93 c #3c3a74",
":3 c #06053c",
";3 c #565880",
"A3 c #898db8",
"B3 c #4c5ac5",
"C3 c #3a3c8f",
"D3 c #8482c0",
"E3 c #8d89c5",
"F3 c #9391c7",
"G3 c #b0afd6",
"H3 c #b8b5da",
"I3 c #c4c3e0",
"J3 c #e7e7f3",
"K3 c #9d9bcc",
"L3 c #0d0c3e",
"M3 c #4e4f77",
"N3 c #979ab4",
"O3 c #4e5dc4",
"P3 c #2a2e8b",
"Q3 c #5551a3",
"R3 c #8c89c4",
"S3 c #f0eff7",
"T3 c #151443",
"U3 c #00003d",
"V3 c #49496f",
"W3 c #9697a9",
"X3 c #4c59bb",
"Y3 c #2c3292",
"Z3 c #514d9e",
"a3 c #7e7abd",
"b3 c #e5e5f2",
"c3 c #1f1e4c",
"d3 c #00003e",
"e3 c #44446b",
"f3 c #8f8f98",
"g3 c #4d57ae",
"h3 c #303899",
"i3 c #4b499b",
"j3 c #6e6bb4",
"k3 c #c3c2e0",
"l3 c #fffeff",
"m3 c #f4f4f9",
"n3 c #d8d7eb",
"o3 c #eeedf6",
"p3 c #fefeff",
"q3 c #e4e3f1",
"r3 c #b9b7db",
"s3 c #8683c1",
"t3 c #38356f",
"u3 c #050540",
"v3 c #3e3e68",
"w3 c #818186",
"x3 c #535aa4",
"y3 c #30399c",
"z3 c #444295",
"04 c #726eb6",
"14 c #7c79bb",
"24 c #f2f2f8",
"34 c #b7b5da",
"44 c #a19fce",
"54 c #a9a7d3",
"64 c #a6a3d0",
"74 c #8b89c3",
"84 c #7874ba",
"94 c #5753a5",
":4 c #12124e",
";4 c #3b3b65",
"A4 c #68686a",
"B4 c #5f649c",
"C4 c #2f379b",
"D4 c #454498",
"E4 c #7672b8",
"F4 c #a3a1d0",
"G4 c #ebebf5",
"H4 c #9a98cb",
"I4 c #807bbd",
"J4 c #322f73",
"K4 c #333360",
"L4 c #464649",
"M4 c #71749f",
"N4 c #2a3294",
"O4 c #444398",
"P4 c #9693c9",
"Q4 c #e1e0ef",
"R4 c #e9e9f4",
"S4 c #9491c8",
"T4 c #7d79bc",
"U4 c #383869",
"V4 c #2e2e31",
"W4 c #898ba6",
"X4 c #262c89",
"Y4 c #48479c",
"Z4 c #7572b8",
"a4 c #8380be",
"b4 c #9b98cb",
"c4 c #a09ece",
"d4 c #a4a1cf",
"e4 c #a8a5d1",
"f4 c #cccae4",
"g4 c #f7f6fb",
"h4 c #b0aed6",
"i4 c #9390c7",
"j4 c #8d8ac4",
"k4 c #8683c0",
"l4 c #6d6ab3",
"m4 c #5a57a9",
"n4 c #4b4b4e",
"o4 c #9c9caf",
"p4 c #2c3084",
"q4 c #4e4ca0",
"r4 c #716eb5",
"s4 c #8581bf",
"t4 c #918ec6",
"u4 c #b1afd7",
"v4 c #c4c2e0",
"w4 c #fafafc",
"x4 c #fafafd",
"y4 c #aeacd5",
"z4 c #8f8cc5",
"05 c #8885c1",
"15 c #7a77bb",
"25 c #5b58aa",
"35 c #9a9aa9",
"45 c #464692",
"55 c #5854a8",
"65 c #5e5bab",
"75 c #7e7abc",
"85 c #8582c0",
"95 c #928fc7",
":5 c #9996ca",
";5 c #a5a2d0",
"A5 c #aba9d3",
"B5 c #b2afd7",
"C5 c #c9c7e3",
"D5 c #faf9fc",
"E5 c #a3a2d0",
"F5 c #7571b8",
"G5 c #6f6cb4",
"H5 c #5a54a9",
"I5 c #7d79bb",
"J5 c #9c9acb",
"K5 c #a3a0cf",
"L5 c #9694c9",
"M5 c #8b88c3",
"N5 c #918fc6",
"O5 c #9895c9",
"P5 c #9e9bcd",
"Q5 c #a3a1cf",
"R5 c #a9a7d2",
"S5 c #afacd5",
"T5 c #b1afd6",
"U5 c #b4b2d8",
"V5 c #edecf6",
"W5 c #8d8ac3",
"X5 c #7b77bb",
"Y5 c #6865b1",
"Z5 c #b2b0d7",
"a5 c #f5f4fa",
"b5 c #e7e6f2",
"c5 c #dadaec",
"d5 c #cfcee6",
"e5 c #c8c7e3",
"f5 c #cbcae4",
"g5 c #cccbe5",
"h5 c #d5d4e9",
"i5 c #f3f2f9",
"j5 c #7976ba",
"k5 c #736fb7",
"l5 c #6e6ab3",
"m5 c #5b57a9",
"n5 c #7d7abc",
"o5 c #fbfbfd",
"p5 c #8986c2",
"q5 c #716db6",
"r5 c #5f5bac",
"s5 c #a4a1d0",
"t5 c #a7a5d1",
"u5 c #9e9ccd",
"v5 c #c3c1e0",
"w5 c #bbb9dc",
"x5 c #c0bfdf",
"y5 c #cdcce5",
"z5 c #e7e6f3",
"06 c #f3f3f9",
"16 c #fdfdfe",
"26 c #8684c0",
"36 c #6662af",
"46 c #fefefe",
"56 c #d9d8ec",
"66 c #7470b7",
"76 c #7c78bb",
"86 c #817dbd",
"96 c #8784c1",
":6 c #8a87c2",
";6 c #8c89c3",
"A6 c #9794c9",
"B6 c #a6a4d1",
"C6 c #b5b3d9",
"D6 c #c4c3e1",
"E6 c #d0cee6",
"F6 c #dbdaec",
"G6 c #dcdbed",
"H6 c #cac9e3",
"I6 c #8d8bc4",
"J6 c #726eb5",
"K6 c #6764b0",
"L6 c #adacd5",
"M6 c #eaeaf4",
"N6 c #b8b6da",
"O6 c #9592c8",
"P6 c #7c79bc",
"Q6 c #807cbd",
"R6 c #827ebe",
"S6 c #8481bf",
"T6 c #8380bf",
"U6 c #817dbe",
"V6 c #7e7bbc",
"W6 c #7874b9",
"X6 c #716db5",
"Y6 c #5d5aab",
"Z6 c #f5f5fa",
"a6 c #ffffff",
"b6 c #f8f8fb",
"c6 c #d9d8eb",
"d6 c #bdbbdc",
"e6 c #a2a0cf",
"f6 c #8884c1",
"g6 c #7b78bb",
"h6 c #7a77ba",
"i6 c #7975ba",
"j6 c #7773b9",
"k6 c #7471b7",
"l6 c #6f6bb4",
"m6 c #8e8bc4",
"n6 c #acaad4",
"o6 c #a8a6d2",
"p6 c #a5a4d1",
"q6 c #9f9dce",
"r6 c #9f9ccd",
"s6 c #9795c9",
"t6 c #908dc5",
"u6 c #8985c2",
"v6 c #7774b9",
"w6 c #7370b7",
"x6 c #726fb6",
"y6 c #716eb6",
"z6 c #706db5",
"07 c #6e6ab4",
"17 c #6b68b2",
"27 c #6562af",
"37 c #6864b0",
"47 c #6a66b1",
"57 c #6c69b3",
"67 c #6c68b2",
"77 c #6b67b2",
"87 c #6965b1",
"97 c #6763b0",
":7 c #615dad",
";7 c #5e5aab",
"A7 c #605cac",
"B7 c #625ead",
"C7 c #6360ae",
"D7 c #6561af",
"E7 c #6461af",
"F7 c #6460ae",
"G7 c #635fae",
"H7 c #615ead",
"I7 c #5f5cac",
"J7 c #5d59ab",
"K7 c #5d59aa",
"L7 c #5c58aa",
"M7 c #5b57aa",
"N7 c #5a56a9",
"O7 c #5854aa",
"P7 c #5954a9",
"Q7 c #5855a9",
"R7 c #5954aa",
"S7 c #5955a9",
"T7 c #5855aa",
"U7 c #5955aa",
"V7 c #5855a8",
"                                    V7U7T7S7R7T7Q7Q7U7                                          ",
"                            P7S7S7S7S7S7S7S7S7S7S7S7S7S7O7Q7                                    ",
"                        P7S7S7S7S7S7N7M7L7K7K7L7L7N7S7S7S7S7S7U7                                ",
"                    P7S7S7S7S7N7J7I7H7G7F7E7D7F7C7B7A7;7L7S7S7S7S7U7                            ",
"                  R7S7S7S7N7;7:7F79787776757576777473727G7I7L7S7S7S7S7U7                        ",
"                R7S7S7S7K7:7D7371707z6y6x6w6v6u6t6s6r6q6p6o6n6o6m6B7S7S7P7                      ",
"              S7S7S7S7;7B79777l6y6k6j6i6h6g6g6f6e6d6c6b6a6a6a6a6a6Z6q6S7S7O7                    ",
"            O7S7S7S7Y6G73757X6k6W6g6V6U6T6S6S6T6R6Q6P6g6O6N6M6a6a6a6a6L6S7S7Q7                  ",
"          S7S7S7S7L7B7K657J6I6H6G6F6E6D6C6B6A6;6:696S68676v66656a6a6a646y6S7S7P7                ",
"        U7S7S7S7N7A73617X626b6a6a6a6a6a6a6a6a61606z5F6y5x5w5v506a6a6a6a6u5S7S7O7                ",
"      P7S7S7S7S7J7G787l666t5a6a6a6a6a6a6a6a6a6a6a6a6a6a6a6a6a6a6a6a6a6a6s5S7S7S7S7              ",
"      S7S7S7S7S7r52767q5v6p5o5a6a6a6a6a6a6a6a6a6a6a6a6a6a6a6a6a6a6a6a6a6n5S7S7S7S7U7            ",
"    P7S7S7S7S7m5:7K6l5k5j5Q6H6a6a6a6a6a6i5h5g5f5e5g5d5c5b5a5a6a6a6a6o5Z5J7S7S7S7S7S7            ",
"    O7S7S7S7S7L7B7Y5l6k6X5R6W5V5a6a6a6a6U5T5Z5S5R5Q5P5O5N5M5:6L5K5J5I5D7;7S7S7S7S7S7H5          ",
"    S7S7S7S7S7L7B787G5F5g6R6p5E5D5a6a6a6C5C6N6B5A5;5r6:595;68575v6q517D765S7S7S7S7554535        ",
"  R7S7S7S7S7S725B7Y5l6k615R605z4y4x4a6a6w4v4u4y4R5Q5P5O5t4M5s4n5j6r477D7;7S7S7S7q4p4o4n4        ",
"  S7S7S7S7S7S7m4:797l4k5j5Q6k4j4i4h4g4a6a616f4e4d4c4b4O6z4p5a476Z4z647C7J7S7S7Y4X4W4V4U4        ",
"  S7S7S7S7S7S7S7r52717J6j6T4T6p5z4S4K5R4a6a6a6Q4;5b4P4t4;6k4Q6j5w60737B7M7S7O4N4M4L4K4J4        ",
"V7S7S7S7S7S7S7S7K7G787l6w6j5I485:6z4i4H4F6a6a6a6G4F4t4;696R6g6E4r417D7r5S7D4C4B4A4;4:494        ",
"S7S7S7S7S7S7S7S7N7A72777X68474b46454A544O63424a6a6b6y4k4R614v604l437B7L7z3y3x3w3v3u3t3S7        ",
"S7S7S7S7S7S7S7S7S7J7s3r3q3p3a6a6a6a6a6a646o3n3m3a6a6l3k3n5j6x6j387F7;7i3h3g3f3e3d3c3S7S7        ",
"R7S7S7S7S7S7S7S7z4b3a6a6a6a6a6a6a6a6a6a6a6a6a6a6a6a6a6a6G6a3l587F7r5Z3Y3X3W3V3U3T3S7S7S7        ",
"Q7S7S7S7S7S7N7r3a6a6a6a6a6a6a6a6a6a6a6a6a6a6a6a6a6a6a6a6a6S3R3F7r5Q3P3O3N3M3U3L3S7S7S7S7        ",
"R7S7S7S7S7S7K3a6a6a6a6a6a6a6a6a6a6a6p3J3h5I3H3G354c4L5F3E3D3V6;7K7C3B3A3;3U3:393S7S7S7S7        ",
"S7S7S7S7S7S783a6a6a6a6a6a6a6a6a6q373634777676717538797D7B7r5M7S743332313U303z2S7S7S7S7S7        ",
"S7S7S7S7S7S7G6a6a6a6a6a6a6a6y2Q5;7r5:7B7G7F7F7C7G7:7A7Y6m5S7S7x2w2v2u2t2s2r2S7S7S7S7S7S7        ",
"P7S7S7S7S7S7y4a6a6a6a6a6a6a6q2S7S7S7S7N7M7L7L7L7m5N7S7S7S7S7p2o2n2m2l2k2j2S7S7S7S7S7S7S7        ",
"  S7S7S7S7S7i2h2a6a6a6a6a6a6g2S7S7S7S7f2e2r5d2I7c2b2N7S7S7a2Z2Y2X2W2V2U2S7S7S7S7S7S7S7S7        ",
"  S7S7S7S7S7S714T2a6a6a6a6a6S2R2Q2P2O2N217l5j3l4M2L2K2J2I2H2G2F2E2U3D2S7S7S7S7S7S7S7S7          ",
"  U7S7S7S7S7S7S7v6h2a6a6a6a6a6C2B2M2q5E4i6X576g6A2j6x6l5;2:29282U37262S7S7S7S7S7S7S7S7          ",
"    S7S7S7S7S7S7S75242a6a6a6a6a6a6q3B53296:622:6f6127502z1y1x1U3w1v1S7S7S7S7S7S7S7S7Q7          ",
"    S7S7S7S7S7S7S7S7S7t4G4a6a6a6a6a6a6a5h5N6K3u1t1s1r1q1p1o1n1m1l1S7S7S7S7S7S7S7S7S7            ",
"    k1S7S7S7S7S7S7S7S7S7:7j1Z6a6a6a6a6a6a6a6y2i1d5h1g1f1e1d1c1b1J7S7S7S7S7S7S7S7S7T7            ",
"      Q7S7S7S7S7S7S7S7S7L7D7a1Z1q3p3a6a6a6a6a6a6Y1X1W1V1U1T1S1R1r5S7S7S7S7S7S7S7S7              ",
"        S7S7S7S7S7S7S7S7M7F757F5n5N5Q1h5P1o5a6O1N1M1L1K1J1I1H1e5h6S7S7S7S7S7S7S7U7              ",
"        Q7S7S7S7S7S7S7S7S7G1F1E1i6U605D1O6C1B1A1;1M1:19181a6a6a646r3S7S7S7S7S7R7                ",
"          T7S7S7S7S7S7S7S7M7G777q5n5f6t4716151413121s211a6a6a6a6a6x401S7S7S7S7                  ",
"            T7S7S7S7S7i232z0y0x0a6a6a6a6a6w0v0u0t0s0r0a6a6a6a6q0p014S7S7S7S7                    ",
"              Q7S7S7S7S7S7S7S7S7G7j6o0H4n0m0l0k0j0i0B5d4O6k4h0S7S7S7S7S7S7U7                    ",
"                R7S7S7S7S7S7S7S7S7S7U7K7g0f0e0j0d0J7m5S7S7S7S7S7S7S7S7S7                        ",
"                  c0S7S7S7S7S7S7k1k1k1b0a0Z0Y0X0k1k1k1k1S7S7S7S7S7S755                          ",
"                    W0V0k1k1k1k1k1k1k1U0T0Y0S0k1k1k1k1k1k1k1k1k1k1R0                            ",
"                      Q0P0c0k1k1k1k1O0N0Y0M05555k1k1k1k1k1k155L0K0                              ",
"                      J0J0I0H0G0F055E0D0C0555555555555k1B0A0;0J0                                ",
"                          J0J0J0:09080706060606050403020J0J0J0                                  ",
"                                  1000                                                          ",
"                                                                                                ",
"                                                                                                "};
