/* XPM */
static char *image[] = {
"48 48 857 2",
"   c None",
"00 c #905903",
"10 c #905902",
"20 c #8f5a02",
"30 c #925c03",
"40 c #a46908",
"50 c #bc7a10",
"60 c #905a03",
"70 c #c28522",
"80 c #b4730d",
"90 c #915a02",
":0 c #c08f3d",
";0 c #ca933b",
"A0 c #b4740d",
"B0 c #945e07",
"C0 c #c08f40",
"D0 c #ca923b",
"E0 c #c17e12",
"F0 c #b2730d",
"G0 c #915a03",
"H0 c #925b05",
"I0 c #bf8d3b",
"J0 c #ca9540",
"K0 c #c27f14",
"L0 c #ab6d0a",
"M0 c #915b04",
"N0 c #925d05",
"O0 c #ba8837",
"P0 c #cc9845",
"Q0 c #c28017",
"R0 c #c17d11",
"S0 c #9e6406",
"T0 c #925b02",
"U0 c #424340",
"V0 c #414240",
"W0 c #ad7a28",
"X0 c #cc9a4a",
"Y0 c #c48520",
"Z0 c #bd7a10",
"a0 c #935c04",
"b0 c #414341",
"c0 c #4c4e4b",
"d0 c #484946",
"e0 c #454643",
"f0 c #424341",
"g0 c #915b03",
"h0 c #9e6b19",
"i0 c #c8984a",
"j0 c #c78b2c",
"k0 c #9c640b",
"l0 c #454845",
"m0 c #374962",
"n0 c #304b6f",
"o0 c #254a80",
"p0 c #2f4c6f",
"q0 c #384864",
"r0 c #414a52",
"s0 c #4a4d4b",
"t0 c #4e504d",
"u0 c #484a47",
"v0 c #858681",
"w0 c #8a8a85",
"x0 c #955f0a",
"y0 c #a16e1d",
"z0 c #8d6016",
"01 c #5a5f5b",
"11 c #4a4c4a",
"21 c #4a4c4b",
"31 c #394a62",
"41 c #3b4f67",
"51 c #555755",
"61 c #464745",
"71 c #878782",
"81 c #8a8b86",
"91 c #b0b1ad",
":1 c #d3d3cf",
";1 c #5a605f",
"A1 c #434b4f",
"B1 c #244b80",
"C1 c #224a83",
"D1 c #51595e",
"E1 c #656664",
"F1 c #4b4d4b",
"G1 c #60615d",
"H1 c #80817b",
"I1 c #a3a39f",
"J1 c #cacac8",
"K1 c #e4e4e2",
"L1 c #e7e7e5",
"M1 c #9b9b95",
"N1 c #434541",
"O1 c #4b4d4a",
"P1 c #3d4a59",
"Q1 c #9cabbe",
"R1 c #73849c",
"S1 c #4c617d",
"T1 c #4b607c",
"U1 c #596470",
"V1 c #6f706d",
"W1 c #b5b5b3",
"X1 c #c4c4c1",
"Y1 c #4a4d49",
"Z1 c #434b52",
"a1 c #a5abb1",
"b1 c #9ea4a9",
"c1 c #9ba1a6",
"d1 c #a0a6ac",
"e1 c #b2b9c0",
"f1 c #b4bec9",
"g1 c #99a9c1",
"h1 c #8ea2be",
"i1 c #6f767d",
"j1 c #50514f",
"k1 c #e1e2e0",
"l1 c #474946",
"m1 c #4d514f",
"n1 c #a8b0b8",
"o1 c #a0a3a5",
"p1 c #9a9d9c",
"q1 c #999a9a",
"r1 c #b3b5b4",
"s1 c #cdcfd0",
"t1 c #dbdedf",
"u1 c #dee2e5",
"v1 c #dadee2",
"w1 c #d5dae0",
"x1 c #c7cfd8",
"y1 c #95a7bd",
"z1 c #8599b5",
"02 c #7b7d7c",
"12 c #616360",
"22 c #8b8c89",
"32 c #e8e8e5",
"42 c #878884",
"52 c #565754",
"62 c #3a4f67",
"72 c #8291a6",
"82 c #858f9a",
"92 c #898e93",
":2 c #8a8e8d",
";2 c #a6a8a8",
"A2 c #c9cac9",
"B2 c #dee0de",
"C2 c #e4e5e5",
"D2 c #dfe2e3",
"E2 c #dbdee2",
"F2 c #dadee1",
"G2 c #bec7d2",
"H2 c #8fa2bb",
"I2 c #798899",
"J2 c #898c89",
"K2 c #484a48",
"L2 c #e4e4e1",
"M2 c #a9aaa6",
"N2 c #4a4c49",
"O2 c #595b59",
"P2 c #778490",
"Q2 c #8a9299",
"R2 c #b1b6bb",
"S2 c #d2d5d6",
"T2 c #e7e8e8",
"U2 c #eaebea",
"V2 c #dcdfe2",
"W2 c #9fafc4",
"X2 c #889cb7",
"Y2 c #8a8d8b",
"Z2 c #60615e",
"a2 c #adadaa",
"b2 c #c0c2bb",
"c2 c #a2a899",
"d2 c #b7bab1",
"e2 c #d1d2ce",
"f2 c #868681",
"g2 c #515a61",
"h2 c #607086",
"i2 c #acb4bd",
"j2 c #d5dbe0",
"k2 c #e0e3e5",
"l2 c #e6e7e7",
"m2 c #e7e8e6",
"n2 c #eaebe8",
"o2 c #eaeae8",
"p2 c #ebebe8",
"q2 c #e8e9e8",
"r2 c #e4e6e7",
"s2 c #cdd3db",
"t2 c #a7b4c7",
"u2 c #95a7be",
"v2 c #81888f",
"w2 c #80827f",
"x2 c #6f706c",
"y2 c #a9aca2",
"z2 c #8d9486",
"03 c #8a9182",
"13 c #949f7b",
"23 c #9dac72",
"33 c #a1af76",
"43 c #9ba091",
"53 c #666865",
"63 c #44556d",
"73 c #77828f",
"83 c #ced4db",
"93 c #d8dcdf",
":3 c #e3e5e5",
";3 c #e7e8e7",
"A3 c #e8e9e7",
"B3 c #e9eae8",
"C3 c #e9eae9",
"D3 c #b4bfcc",
"E3 c #9aa9b9",
"F3 c #8d9daf",
"G3 c #687885",
"H3 c #9b9c99",
"I3 c #4e524a",
"J3 c #909e6b",
"K3 c #9fb06d",
"L3 c #aec070",
"M3 c #adc16c",
"N3 c #acc067",
"O3 c #bac983",
"P3 c #8b9184",
"Q3 c #e4e5e1",
"R3 c #f7f7f6",
"S3 c #8e9089",
"T3 c #41433f",
"U3 c #727370",
"V3 c #3a5478",
"W3 c #929aa3",
"X3 c #dee1e3",
"Y3 c #e9e9e7",
"Z3 c #eaeae9",
"a3 c #eaebe9",
"b3 c #ebecea",
"c3 c #ebebea",
"d3 c #e1e3e1",
"e3 c #c3c6c6",
"f3 c #868f8f",
"g3 c #65717a",
"h3 c #667383",
"i3 c #8994a5",
"j3 c #637584",
"k3 c #aeaeab",
"l3 c #494d42",
"m3 c #a1b859",
"n3 c #9fb654",
"o3 c #9eb64e",
"p3 c #a1b853",
"q3 c #a6bb59",
"r3 c #bdcd82",
"s3 c #979f84",
"t3 c #cccec8",
"u3 c #f4f4f2",
"v3 c #b9b9b5",
"w3 c #424441",
"x3 c #7d7e7b",
"y3 c #2f5480",
"z3 c #a9afb8",
"04 c #cdd1d5",
"14 c #e3e5e6",
"24 c #e6e7e6",
"34 c #e4e5e4",
"44 c #e4e5e3",
"54 c #e5e5e3",
"64 c #e5e6e4",
"74 c #e7e7e4",
"84 c #ddddda",
"94 c #b4b5b3",
":4 c #888484",
";4 c #747974",
"A4 c #7b8569",
"B4 c #7c8479",
"C4 c #8f92a4",
"D4 c #adb8cd",
"E4 c #bac5d6",
"F4 c #697a96",
"G4 c #bbbcb9",
"H4 c #464844",
"I4 c #948b80",
"J4 c #978d82",
"K4 c #a2b261",
"L4 c #aabf5f",
"M4 c #bbcc7b",
"N4 c #a5b083",
"O4 c #b1b5ab",
"P4 c #dcdcd9",
"Q4 c #414340",
"R4 c #3d5a7b",
"S4 c #b6bdc5",
"T4 c #c8cbcf",
"U4 c #dce0e3",
"V4 c #dbdede",
"W4 c #dfe1e0",
"X4 c #e3e4e2",
"Y4 c #a5a6a1",
"Z4 c #818379",
"a4 c #72746d",
"b4 c #7a7a76",
"c4 c #9c9999",
"d4 c #c6c4c5",
"e4 c #b8b1b7",
"f4 c #968e92",
"g4 c #867f8d",
"h4 c #b9c0d1",
"i4 c #b8c6d9",
"j4 c #c7d1e1",
"k4 c #8191a8",
"l4 c #bebfbc",
"m4 c #484846",
"n4 c #cfc7cb",
"o4 c #eeebed",
"p4 c #c4bcc1",
"q4 c #958887",
"r4 c #afc365",
"s4 c #baca76",
"t4 c #bbc88f",
"u4 c #969c8d",
"v4 c #f3f3f1",
"w4 c #414440",
"x4 c #828380",
"y4 c #4f6279",
"z4 c #adb2b6",
"05 c #ccd4dd",
"15 c #d7dadc",
"25 c #afb0b0",
"35 c #81847c",
"45 c #6f726c",
"55 c #798068",
"65 c #7f8d54",
"75 c #8aa050",
"85 c #95ac57",
"95 c #9d8f97",
":5 c #f8f9fa",
";5 c #f9fafc",
"A5 c #b7b2ba",
"B5 c #7a7487",
"C5 c #bfc9da",
"D5 c #bcc9db",
"E5 c #c3cedf",
"F5 c #838fa1",
"G5 c #b7b8b5",
"H5 c #e3dee1",
"I5 c #928288",
"J5 c #b4c56b",
"K5 c #b9ca72",
"L5 c #d0db9f",
"M5 c #8e9485",
"N5 c #dfe0dd",
"O5 c #989894",
"P5 c #414441",
"Q5 c #777976",
"R5 c #6c757c",
"S5 c #9eadc5",
"T5 c #747e8c",
"U5 c #b8c2cd",
"V5 c #d2d7dc",
"W5 c #9a9e9a",
"X5 c #75825a",
"Y5 c #93aa51",
"Z5 c #92a855",
"a5 c #9a9487",
"b5 c #93828c",
"c5 c #908287",
"d5 c #8e7e88",
"e5 c #c0b8bf",
"f5 c #f3f3f5",
"g5 c #d2bcad",
"h5 c #a2795a",
"i5 c #996b47",
"j5 c #af9583",
"k5 c #a6958c",
"l5 c #959493",
"m5 c #82827e",
"n5 c #93838c",
"o5 c #988b8a",
"p5 c #c6cb9b",
"q5 c #a1a88c",
"r5 c #c6c8c2",
"s5 c #60625f",
"t5 c #8f918f",
"u5 c #4a5d75",
"v5 c #98a3b0",
"w5 c #cbd2da",
"x5 c #b5b9bc",
"y5 c #737d67",
"z5 c #90ab4b",
"06 c #8e877e",
"16 c #c0b8be",
"26 c #ecebed",
"36 c #e4e2e5",
"46 c #bcb5bb",
"56 c #91838d",
"66 c #cab2a2",
"76 c #b56924",
"86 c #b06827",
"96 c #b36823",
":6 c #ae6e32",
";6 c #d8c3b1",
"A6 c #97775a",
"B6 c #bebdb9",
"C6 c #777875",
"D6 c #9a652a",
"E6 c #d8b796",
"F6 c #96858f",
"G6 c #beb5ba",
"H6 c #d0c8cd",
"I6 c #a89d9d",
"J6 c #b6bf94",
"K6 c #abb0a4",
"L6 c #e6e6e4",
"M6 c #898b85",
"N6 c #464945",
"O6 c #a1a29f",
"P6 c #576b82",
"Q6 c #385277",
"R6 c #6e7d8d",
"S6 c #c3ccd9",
"T6 c #c4cad0",
"U6 c #686e6c",
"V6 c #8ea751",
"W6 c #8e8583",
"X6 c #c5bfc5",
"Y6 c #f5f7f9",
"Z6 c #f6f8fa",
"a6 c #f6f7fa",
"b6 c #dcc4af",
"c6 c #b26118",
"d6 c #c66c17",
"e6 c #c77422",
"f6 c #c6a781",
"g6 c #ccbca5",
"h6 c #928572",
"i6 c #d6d7d3",
"j6 c #4e4d47",
"k6 c #df8517",
"l6 c #cd7816",
"m6 c #ebccaa",
"n6 c #9c8e93",
"o6 c #d2daa9",
"p6 c #92978a",
"q6 c #737471",
"r6 c #9d9f9d",
"s6 c #4f5e72",
"t6 c #b7c3d2",
"u6 c #bcc5d1",
"v6 c #737e7e",
"w6 c #7b9257",
"x6 c #83974f",
"y6 c #8a8083",
"z6 c #93868e",
"07 c #b1abb3",
"17 c #c5c0c9",
"27 c #b46e2d",
"37 c #ba691b",
"47 c #c77523",
"57 c #bb7e34",
"67 c #b99560",
"77 c #e6dfd1",
"87 c #9a8d6c",
"97 c #c7c6c2",
":7 c #8d8e8b",
";7 c #937438",
"A7 c #f9a926",
"B7 c #e38c18",
"C7 c #d48828",
"D7 c #fefdfb",
"E7 c #e7e3e6",
"F7 c #c5bcc1",
"G7 c #94838c",
"H7 c #b6b68d",
"I7 c #e2eab7",
"J7 c #929989",
"K7 c #dadbd8",
"L7 c #a6a6a2",
"M7 c #444643",
"N7 c #a8aaa6",
"O7 c #828c95",
"P7 c #4b5f78",
"Q7 c #9aaabe",
"R7 c #b0bdcc",
"S7 c #8a959f",
"T7 c #6b7e61",
"U7 c #7b994e",
"V7 c #798460",
"W7 c #7f7687",
"X7 c #807788",
"Y7 c #8f868e",
"Z7 c #a26425",
"a7 c #b86c25",
"b7 c #b87932",
"c7 c #bd9967",
"d7 c #ece7dc",
"e7 c #aea485",
"f7 c #a9a89b",
"g7 c #505046",
"h7 c #ebbc3e",
"i7 c #fbba33",
"j7 c #efa022",
"k7 c #d28218",
"l7 c #988080",
"m7 c #907e88",
"n7 c #b9bb8c",
"o7 c #d5e095",
"p7 c #e2eab3",
"q7 c #acb396",
"r7 c #c0c3bd",
"s7 c #d2d2d0",
"t7 c #85857e",
"u7 c #545653",
"v7 c #717f8f",
"w7 c #3b577c",
"x7 c #798ba3",
"y7 c #a4b3c8",
"z7 c #96a4b5",
"08 c #607074",
"18 c #798a75",
"28 c #7f7f91",
"38 c #b6bccd",
"48 c #c7d1e0",
"58 c #c4cfdd",
"68 c #9a6b3c",
"78 c #a66d37",
"88 c #cbac89",
"98 c #ede6dd",
":8 c #ac9f80",
";8 c #989787",
"A8 c #dbdcd8",
"B8 c #5b5d59",
"C8 c #bfad4c",
"D8 c #fdd145",
"E8 c #fbc038",
"F8 c #e79a22",
"G8 c #d9922d",
"H8 c #f7f5f5",
"I8 c #ddd7db",
"J8 c #b5aaaf",
"K8 c #93828a",
"L8 c #c2c395",
"M8 c #e3eaae",
"N8 c #c8cda9",
"O8 c #a5aa9d",
"P8 c #efefee",
"Q8 c #888a84",
"R8 c #424440",
"S8 c #656663",
"T8 c #c7c7c4",
"U8 c #89939c",
"V8 c #566c89",
"W8 c #95a8c3",
"X8 c #96a7be",
"Y8 c #57687a",
"Z8 c #6f807a",
"a8 c #7e859c",
"b8 c #acb9cd",
"c8 c #b3bed2",
"d8 c #b8c0d1",
"e8 c #c2bdbd",
"f8 c #e8e2dc",
"g8 c #d3c4b4",
"h8 c #9a8365",
"i8 c #a39f95",
"j8 c #dbdbd8",
"k8 c #6b6d6a",
"l8 c #998642",
"m8 c #fccf44",
"n8 c #fcc53c",
"o8 c #f1ac2c",
"p8 c #d98e20",
"q8 c #f2d8b3",
"r8 c #d8d1d5",
"s8 c #9c8e8f",
"t8 c #e4ebab",
"u8 c #e6ecc4",
"v8 c #8e9487",
"w8 c #585a57",
"x8 c #c4c4c2",
"y8 c #bbbcba",
"z8 c #909eaf",
"09 c #889cb9",
"19 c #5f7489",
"29 c #5b766c",
"39 c #657580",
"49 c #656e89",
"59 c #dfe0e7",
"69 c #cacdd7",
"79 c #a8adc0",
"89 c #8f8f97",
"99 c #8a8175",
":9 c #c3c2bd",
";9 c #cececb",
"A9 c #5c5d5a",
"B9 c #9c7937",
"C9 c #f7b22f",
"D9 c #f1ac2b",
"E9 c #e59d2b",
"F9 c #db9228",
"G9 c #dcc19d",
"H9 c #95858e",
"I9 c #e2dee0",
"J9 c #f7f6f7",
"K9 c #d1cacf",
"L9 c #9d9091",
"M9 c #eef3c7",
"N9 c #9ba18f",
"O9 c #d5d6d1",
"P9 c #b6b6b2",
"Q9 c #454744",
"R9 c #898b88",
"S9 c #cdcecc",
"T9 c #a0a7ad",
"U9 c #75868c",
"V9 c #6e897d",
"W9 c #60806a",
"X9 c #6c8777",
"Y9 c #788296",
"Z9 c #a3a9b0",
"a9 c #cdcdcc",
"b9 c #d9d9d6",
"c9 c #8a8b89",
"d9 c #504e45",
"e9 c #a67835",
"f9 c #dc942d",
"g9 c #de9731",
"h9 c #e1a651",
"i9 c #ecca99",
"j9 c #fdf9f3",
"k9 c #fefdfe",
"l9 c #a6999f",
"m9 c #96878a",
"n9 c #9a8a8e",
"o9 c #8e7c87",
"p9 c #9a8a8f",
"q9 c #cfcfa1",
"r9 c #e6edab",
"s9 c #ecf1bf",
"t9 c #b6bc9e",
"u9 c #babdb5",
"v9 c #dfdfdd",
"w9 c #878984",
"x9 c #515250",
"y9 c #4c4e4c",
"z9 c #e6e6e3",
"0: c #dadad7",
"1: c #c9cac7",
"2: c #a8a8a5",
"3: c #747572",
"4: c #515350",
"5: c #817d7e",
"6: c #908088",
"7: c #ac9fa5",
"8: c #c0b6bb",
"9: c #e4e0e2",
":: c #98898d",
";: c #dfe8a3",
"A: c #e5ecab",
"B: c #eaf0b7",
"C: c #ecf2c0",
"D: c #eff3c9",
"E: c #dde2bb",
"F: c #b0b798",
"G: c #9ea395",
"H: c #f6f6f6",
"I: c #888882",
"J: c #898a86",
"K: c #c1c2c0",
"L: c #838481",
"M: c #51534e",
"N: c #4e5145",
"O: c #474b41",
"P: c #4d5143",
"Q: c #545151",
"R: c #7b7a7a",
"S: c #bebcbc",
"T: c #c0b7bc",
"U: c #8f7d87",
"V: c #9e8f94",
"W: c #ffffff",
"X: c #aa9ea2",
"Y: c #d4ced2",
"Z: c #ccc4c7",
"a: c #afa5a4",
"b: c #ecf1c1",
"c: c #e6ebc4",
"d: c #c9cfad",
"e: c #adb398",
"f: c #939888",
"g: c #92988a",
"h: c #adb1a4",
"i: c #c9ccc6",
"j: c #fdfdfd",
"k: c #92938d",
"l: c #7f817b",
"m: c #eeeeed",
"n: c #a6a89e",
"o: c #96a56d",
"p: c #a9bd62",
"q: c #a2b954",
"r: c #a0a968",
"s: c #968988",
"t: c #8e7d87",
"u: c #9a8f85",
"v: c #adb776",
"w: c #918189",
"x: c #d7d1d5",
"y: c #f0eeef",
"z: c #dad4d7",
"0; c #97868f",
"1; c #c2c19e",
"2; c #afa3a7",
"3; c #b4a8af",
"4; c #b1aaa8",
"5; c #b5ba9f",
"6; c #a2a892",
"7; c #8c9185",
"8; c #9ca194",
"9; c #babdb6",
":; c #d9dad6",
";; c #f9f9f9",
"A; c #c5c6c3",
"B; c #858680",
"C; c #d7d7d5",
"D; c #f1f1ef",
"E; c #c5c7c2",
"F; c #909a79",
"G; c #b3c573",
"H; c #a7bd5a",
"I; c #abc060",
"J; c #b0c366",
"K; c #b4c76b",
"L; c #b9ca71",
"M; c #bdce77",
"N; c #b6bc84",
"O; c #a69c98",
"P; c #a99ba0",
"Q; c #b7adae",
"R; c #c6c8aa",
"S; c #bcc49d",
"T; c #a6ac93",
"U; c #8d9386",
"V; c #959a8d",
"W; c #b0b3aa",
"X; c #cbcdc7",
"Y; c #e9e9e8",
"Z; c #b2b3b0",
"a; c #e2e2df",
"b; c #878d80",
"c; c #bbcc82",
"d; c #adc163",
"e; c #b0c466",
"f; c #b6c86e",
"g; c #bece7d",
"h; c #c8d68c",
"i; c #d1dc9d",
"j; c #d1dba4",
"k; c #bcc497",
"l; c #a8af8f",
"m; c #939988",
"n; c #909789",
"o; c #a9ada2",
"p; c #c4c7c0",
"q; c #e1e2df",
"r; c #8a8b84",
"s; c #959c8b",
"t; c #b0bf80",
"u; c #bfce82",
"v; c #c6d48d",
"w; c #cbd898",
"x; c #bec990",
"y; c #abb68b",
"z; c #9aa08a",
"0A c #8d9285",
"1A c #a2a698",
"2A c #bdc0b9",
"3A c #d8d9d5",
"4A c #888982",
"5A c #b5b9af",
"6A c #9ba57f",
"7A c #a5b082",
"8A c #979f86",
"9A c #8c9384",
":A c #a1a696",
";A c #bec2b8",
"AA c #dadbd6",
"BA c #fefefd",
"CA c #dddedc",
"DA c #898984",
"EA c #868883",
"FA c #d0d0cd",
"GA c #d2d4d0",
"HA c #999f91",
"IA c #b6b9b0",
"JA c #d2d4cf",
"KA c #e9e9e6",
"LA c #fcfcfc",
"MA c #d1d2cf",
"NA c #9e9f9a",
"OA c #a8a9a6",
"PA c #ebebe9",
"QA c #f5f5f3",
"RA c #fefefe",
"SA c #dededc",
"TA c #b4b5b2",
"UA c #8d8e88",
"VA c #878983",
"WA c #868781",
"XA c #ecece9",
"YA c #efefed",
"ZA c #f8f8f7",
"aA c #cdcdca",
"bA c #959691",
"cA c #898983",
"dA c #e8e8e6",
"eA c #f2f2f0",
"fA c #eeeeec",
"gA c #fbfbfa",
"hA c #f1f1f0",
"iA c #d6d7d5",
"jA c #a8a9a5",
"kA c #84857f",
"lA c #898a85",
"mA c #c9c9c7",
"nA c #f6f6f5",
"oA c #ececea",
"pA c #ededea",
"qA c #ededeb",
"rA c #f0f0ef",
"sA c #f9f9f8",
"tA c #fdfdfc",
"uA c #f5f5f4",
"vA c #dddddb",
"wA c #b4b5b1",
"xA c #858682",
"yA c #848680",
"zA c #999a94",
"0B c #eeeeeb",
"1B c #f0f0ee",
"2B c #f4f4f3",
"3B c #f8f8f8",
"4B c #fcfcfb",
"5B c #f3f3f2",
"6B c #dbdbd9",
"7B c #b2b2af",
"8B c #878883",
"9B c #898a84",
":B c #858580",
";B c #888984",
"AB c #d0d1ce",
"BB c #fafaf9",
"CB c #f6f7f6",
"DB c #e1e1e0",
"EB c #bdbeba",
"FB c #8e8f8b",
"GB c #888983",
"HB c #888a85",
"IB c #8a8b85",
"JB c #868782",
"KB c #878882",
"LB c #8b8b85",
"                                                    LBKBJBIB                                    ",
"                                            HBGBFBEBDBCBBBAB;B                                  ",
"                                    :B9B8B7B6B5B4B3B2B1B0BBBzA                                  ",
"                            yA9BxAwAvAuAtAsA2BrAqAqApAoAoAnAmAyA                                ",
"                      lAkAjAiAhAtAgAnAhAfAqAqAqApAoAoAoAoAeAdA9B                                ",
"              cAJBbAaAqA4BtAZA5BYAqAqAqAqAqApApAoAoAoAoAXAqA3BWA                                ",
"      VAUA;BTASAZARABBQA1BfAfAqAqAqAqAqApApAoAoAoAoAXAXAPAPAZAOA                                ",
"  GBNAMArARALAZA5BYAfAfAfAqAqAqAqAqAqApAoAoAoAoAXAKAJAIAHAGA5BFAEA                              ",
"DACABAsA2B1BfAfAfAfAfAqAqAqAqAqAqApAoAoAoAoAAA;A:A9A8A7A6A5AYAPAcA                              ",
"4ARAYAfAfAfAfAfAfAqAqAqAqAqAqApAoAoA3A2A1A0Az;y;x;w;v;u;t;s;PAZAr;                              ",
"KBLArAfAfAfAfA0BqAqAqAqAqApAq;p;o;n;m;l;k;j;i;h;g;f;e;d;c;b;a;uAZ;                              ",
"9BY;uAfAfA0BqAqAqAqAdAX;W;V;U;T;S;R;Q;P;O;N;M;L;K;J;I;H;G;F;E;D;C;B;                            ",
"  A;;;0BqAqAoA:;9;8;7;6;5;4;3;2;1;0;z:y:x:w:v:u:t:s:r:q:p:o:n:oAm:l:                            ",
"  k:j:qAi:h:g:f:e:d:c:b:a:Z:LAY:t:X:W:W:W:V:U:T:S:R:Q:P:O:N:M:L:K:J:                            ",
"  I:H:D;G:F:E:D:C:B:A:;:::9:W:W:8:7:W:W:j:6:5:4:3:2:1:0:z90:1:2:3:y9x9                          ",
"  w9v9uAu9t9s9r9q9p9o9n9m9l9k9j9i9h9g9f9e9d9c9b9a9Z9Y9X9W9V9U9T9S9b9R9Q9                        ",
"    P9sAO9N9M9r9L9K9J9I98:H9G9F9E9D9C9B9A9;9:999897969594939291909z8y8x8w8                      ",
"    lA4BPAv8u8t8s8r8W:W:W:q8p8o8n8m8l8k8j8i8h8g8f8e8d8c8b8a8Z8Y8X8W8V8U8T8S8R8                  ",
"    Q8P8D;O8N8M8L8K8J8I8H8G8F8E8D8C8B8A8;8:898887868584838281808z7y7x7w7v7EBu7                  ",
"    t7s72Br7q7p7o7n7m7o9l7k7j7i7h7g7aAf7e7d7c7b7a7Z7Y7X7W7V7U7T7S7R7Q7P7  O7N7M7                ",
"      L7sAK7J7I7H7G7F7E7D7C7B7A7;7:797877767574737271707z6y6x6w6v6u6t6s6    r6q6R8              ",
"      8BZApAp6o6n6I9W:W:W:m6l6k6j6i6h6g6f6b7e6d6c6b6a6Z6Y6X6W6V6U6T6S6R6Q6  P6O6N6              ",
"      M6L6rAK6J6I6H6y:I9G6F6E6D6C6B6A6;6:696867666564636261606z5y5x5w5v5u5    t5s5              ",
"        A;2Br5q5p5o5t:U:n5I8W:m5O6l5k5j5i5h5g5f5Z6e5d5c5b5a5Z5Y5X5W5V5U5T5S5  R5Q5P5            ",
"        O53BN5M5L5K5J5I5H5W:W:s5G5F5E5D5C5B5A5a6;5:595857565554535251505z4U5  y4x4w4            ",
"        KBv4pAu4t4s4r4q4p4o4n4m4l4k4j4i4h4g4f4e4d4c4b4a4Z4Y4A;q;X4W4V4U4T4S4  R4x4Q4            ",
"        cAP4rAO4N4M4L4K4J4I5I4H4G4F4E4D4C4B4A4;4C6:49484747464544434241404z3  y3x3w3            ",
"          v3u3t3s3r3q3p3o3n3m3l3k3j3i3h3g3f3e3d3c3b3b3oAXAPAc3a3Z3Y324X3V5W3  V3U3T3            ",
"          S3R3Q3P3O3N3M3L3K3J3I3H3G3F3E3D3X3C3c3c3oAoAPAc3c3PAB3A3;3:3938373  6353w4            ",
"          GBc3XA4333231303z2y2x2w2v2u2t2s2r2q2a3Z3a3b3p2o2n2o2A3m2l2k2j2i2h2  g2w8P5            ",
"          f2e21Bd29Ac2b2b97474a2Z2Y2X2W2V2k214l2Y3q2B3Y;B3o2U2U2T2S2R2Q2P2    O2N2              ",
"            M2u3L2z97474747474vAK2J2I2H2G2F2E2D2C2q2PAU2b3B2A2;2:2928272    6252w3              ",
"            42u33274747474747474221202z1y1x1w1v1u1t1s1r1q1p1o1n1            m1l1R8              ",
"            ;Bk1XA7474747474747484j13:i1h1g1f1e1d1c1b1a1                  Z1Y1T3                ",
"              X1YA7474747474o20BD;W1N2V1U1T1S1R1Q1y7                    P1O1N1                  ",
"              M1v4L1KAoA1BeAK1J1I1H1G1F1E1D1C1                      B1A1O1M7;1                  ",
"              VAmA1Ba3:19181GB71      T361w85141                  312111N101z0y0x0              ",
"                w0v0KBDA                  w3u0t0s0r0q0p0o0n0m0r0s0O1l0T3    k0j0i0h0g0          ",
"                                            T3f0e0d0Y1O1c0O1Y1d0e0w3b0      a0Z0Y0X0W0g0        ",
"                                                  T3V0Q4w4Q4V0U0            T0S0R0Q0P0O0N0      ",
"                                                                              M0L0R0K0J0I0H0    ",
"                                                                                G0F0R0E0D0C0B0  ",
"                                                                                  g0A0R0E0;0:090",
"                                                                                    g080R0E070G0",
"                                                                                      6080504030",
"                                                                                        201000  ",
"                                                                                                ",
"                                                                                                "};
