/* XPM */
static char *image[] = {
"48 48 556 2",
"   c None",
"00 c #434441",
"10 c #555751",
"20 c #575954",
"30 c #5b5d57",
"40 c #5f6059",
"50 c #5e6059",
"60 c #5e6058",
"70 c #5e5f58",
"80 c #5e5f59",
"90 c #5c5f58",
":0 c #5d5f57",
";0 c #565853",
"A0 c #454743",
"B0 c #616358",
"C0 c #6a6c5c",
"D0 c #616259",
"E0 c #5e5f5a",
"F0 c #868771",
"G0 c #9b9c7e",
"H0 c #9b9c7f",
"I0 c #9b9d7e",
"J0 c #8d8f76",
"K0 c #66685e",
"L0 c #565753",
"M0 c #575a54",
"N0 c #7e816f",
"O0 c #6a6c5d",
"P0 c #838581",
"Q0 c #969893",
"R0 c #959692",
"S0 c #8b8c88",
"T0 c #81827f",
"U0 c #5b5d58",
"V0 c #7d7f6b",
"W0 c #97997b",
"X0 c #939575",
"Y0 c #929474",
"Z0 c #929374",
"a0 c #929373",
"b0 c #919372",
"c0 c #919272",
"d0 c #929475",
"e0 c #97987a",
"f0 c #717264",
"g0 c #565852",
"h0 c #575a53",
"i0 c #787a6c",
"j0 c #6d6e5b",
"k0 c #888a85",
"l0 c #80827e",
"m0 c #767866",
"n0 c #939577",
"o0 c #8a8c6a",
"p0 c #898b6a",
"q0 c #898b69",
"r0 c #8a8c6b",
"s0 c #939477",
"t0 c #60625a",
"u0 c #767863",
"v0 c #91938e",
"w0 c #858782",
"x0 c #848581",
"y0 c #878a85",
"z0 c #8d8e76",
"01 c #97997a",
"11 c #8f9170",
"21 c #8f9171",
"31 c #909171",
"41 c #909271",
"51 c #909272",
"61 c #919373",
"71 c #969879",
"81 c #989981",
"91 c #5b5c57",
":1 c #585b54",
";1 c #727470",
"A1 c #959793",
"B1 c #848681",
"C1 c #8c8d8a",
"D1 c #737671",
"E1 c #686a61",
"F1 c #a9ab91",
"G1 c #989a7d",
"H1 c #989a7c",
"I1 c #999a7c",
"J1 c #999a7d",
"K1 c #999b7d",
"L1 c #999b7e",
"M1 c #9a9b7e",
"N1 c #9a9c7e",
"O1 c #9a9c7f",
"P1 c #a6a78e",
"Q1 c #838576",
"R1 c #585a54",
"S1 c #8e8f8b",
"T1 c #8b8d88",
"U1 c #81837e",
"V1 c #838580",
"W1 c #838681",
"X1 c #5d5f5a",
"Y1 c #a0a290",
"Z1 c #a8a990",
"a1 c #a2a388",
"b1 c #a2a488",
"c1 c #a2a489",
"d1 c #a3a489",
"e1 c #a3a589",
"f1 c #a3a58a",
"g1 c #a4a58a",
"h1 c #a9aa90",
"i1 c #a7a997",
"j1 c #626560",
"k1 c #999b97",
"l1 c #80827d",
"m1 c #a4a5a2",
"n1 c #979996",
"o1 c #737672",
"p1 c #7f8077",
"q1 c #b9bba5",
"r1 c #abad93",
"s1 c #abad94",
"t1 c #acad94",
"u1 c #acad95",
"v1 c #acae95",
"w1 c #adae95",
"x1 c #adae96",
"y1 c #adaf96",
"z1 c #c0c2af",
"02 c #60625d",
"12 c #575953",
"22 c #7a7b78",
"32 c #7f817c",
"42 c #6c6e6c",
"52 c #616261",
"62 c #7c7e79",
"72 c #989995",
"82 c #abaca9",
"92 c #5f605c",
":2 c #c8cab9",
";2 c #b5b69f",
"A2 c #b5b6a0",
"B2 c #b5b7a0",
"C2 c #b6b7a0",
"D2 c #b6b7a1",
"E2 c #b6b8a1",
"F2 c #b7b8a1",
"G2 c #b7b8a2",
"H2 c #c5c6b4",
"I2 c #8c8e84",
"J2 c #838481",
"K2 c #8c8e89",
"L2 c #727371",
"M2 c #6e6e6e",
"N2 c #797a78",
"O2 c #696969",
"P2 c #686b68",
"Q2 c #92948f",
"R2 c #babbb9",
"S2 c #929490",
"T2 c #60635e",
"U2 c #bcbcb0",
"V2 c #cacbbb",
"W2 c #c3c4b1",
"X2 c #c3c5b1",
"Y2 c #c4c5b1",
"Z2 c #c4c5b2",
"a2 c #c1c2af",
"b2 c #bfc1ac",
"c2 c #bfc1ad",
"d2 c #c0c1ad",
"e2 c #c8c9b7",
"f2 c #b3b4aa",
"g2 c #5d5f59",
"h2 c #8c8d89",
"i2 c #878984",
"j2 c #a9aba7",
"k2 c #737473",
"l2 c #626563",
"m2 c #797b76",
"n2 c #cbcbca",
"o2 c #979995",
"p2 c #686a64",
"q2 c #bdbeb4",
"r2 c #cbccc0",
"s2 c #ccccc1",
"t2 c #d8d8cb",
"u2 c #c9cab8",
"v2 c #c9cab9",
"w2 c #cacbb9",
"x2 c #cfd0bf",
"y2 c #c5c7bc",
"z2 c #5d605b",
"03 c #949591",
"13 c #81837f",
"23 c #7a7c77",
"33 c #797979",
"43 c #c8c9c6",
"53 c #b7b9b5",
"63 c #828381",
"73 c #6b6d6c",
"83 c #777974",
"93 c #7b7d78",
":3 c #dedfdd",
";3 c #9c9e9a",
"A3 c #9a9c98",
"B3 c #7d7e7a",
"C3 c #656662",
"D3 c #646561",
"E3 c #646660",
"F3 c #5f615c",
"G3 c #b3b3aa",
"H3 c #d9dace",
"I3 c #cccdbc",
"J3 c #cfd0c0",
"K3 c #cfd0c7",
"L3 c #7e807b",
"M3 c #818281",
"N3 c #bbbdba",
"O3 c #b3b5b1",
"P3 c #848584",
"Q3 c #717371",
"R3 c #767873",
"S3 c #757772",
"T3 c #e6e6e5",
"U3 c #a1a39f",
"V3 c #a0a29e",
"W3 c #d4d4d1",
"X3 c #c4c4bf",
"Y3 c #c1c1bc",
"Z3 c #bebeba",
"a3 c #bbbbb6",
"b3 c #b9b9b3",
"c3 c #b6b6b1",
"d3 c #b2b2ad",
"e3 c #aaaaa6",
"f3 c #8a8b86",
"g3 c #767771",
"h3 c #deded3",
"i3 c #d1d2c2",
"j3 c #d1d1c2",
"k3 c #d0d1c2",
"l3 c #d1d2c3",
"m3 c #d8d9ce",
"n3 c #91928e",
"o3 c #82847f",
"p3 c #7f7f7e",
"q3 c #a1a39e",
"r3 c #8a8b8a",
"s3 c #747671",
"t3 c #7e807c",
"u3 c #d5d5d4",
"v3 c #a6a8a4",
"w3 c #b7b7b6",
"x3 c #e6e6e3",
"y3 c #d5d5d1",
"z3 c #d3d3cf",
"04 c #d2d2ce",
"14 c #d2d2cd",
"24 c #d0d0cb",
"34 c #cfcfcb",
"44 c #ccccc8",
"54 c #c3c3be",
"64 c #ababa7",
"74 c #c5c6bb",
"84 c #ccccc2",
"94 c #cccdc2",
":4 c #cdcdc3",
";4 c #cdcec3",
"A4 c #cdcec4",
"B4 c #cbcbc1",
"C4 c #585955",
"D4 c #888a86",
"E4 c #868883",
"F4 c #61645f",
"G4 c #b5b6b5",
"H4 c #929392",
"I4 c #919191",
"J4 c #858684",
"K4 c #72746f",
"L4 c #878985",
"M4 c #aeafac",
"N4 c #b9b9b9",
"O4 c #ddddd9",
"P4 c #dcdcd9",
"Q4 c #dbdbd8",
"R4 c #dbdbd7",
"S4 c #dadad6",
"T4 c #d6d6d2",
"U4 c #d1d1ce",
"V4 c #9b9c98",
"W4 c #6a6c67",
"X4 c #6b6c67",
"Y4 c #656762",
"Z4 c #5c5e59",
"a4 c #5e605a",
"b4 c #575956",
"c4 c #80817e",
"d4 c #6e6f6c",
"e4 c #e5e5e4",
"f4 c #5f615e",
"g4 c #767874",
"h4 c #8e908c",
"i4 c #c5c6c4",
"j4 c #c0c1bf",
"k4 c #c1c1c1",
"l4 c #e7e7e4",
"m4 c #e5e5e3",
"n4 c #e4e4e2",
"o4 c #e4e4e1",
"p4 c #e3e3e0",
"q4 c #e2e2df",
"r4 c #e1e1df",
"s4 c #e1e1de",
"t4 c #dfdfdc",
"u4 c #dededb",
"v4 c #dededa",
"w4 c #ddddda",
"x4 c #e1e1e0",
"y4 c #b8b9b8",
"z4 c #aeafad",
"05 c #5d5e5b",
"15 c #70726e",
"25 c #d3d4d2",
"35 c #90928e",
"45 c #70726d",
"55 c #6f716c",
"65 c #989895",
"75 c #cccccb",
"85 c #c3c3c2",
"95 c #dddddd",
":5 c #eeeeed",
";5 c #ededec",
"A5 c #ededeb",
"B5 c #ececea",
"C5 c #ebebea",
"D5 c #eaeae9",
"E5 c #eaeae8",
"F5 c #e9e9e7",
"G5 c #e8e8e6",
"H5 c #e7e7e5",
"I5 c #e6e6e4",
"J5 c #f4f4f3",
"K5 c #c6c6c6",
"L5 c #9e9e9c",
"M5 c #81817e",
"N5 c #dbdbd9",
"O5 c #6e706b",
"P5 c #e9eae9",
"Q5 c #f4f5f4",
"R5 c #f3f4f3",
"S5 c #afafaf",
"T5 c #f7f7f7",
"U5 c #f6f6f6",
"V5 c #f6f6f5",
"W5 c #f4f4f4",
"X5 c #f3f3f3",
"Y5 c #f3f3f2",
"Z5 c #f2f2f1",
"a5 c #f1f1f1",
"b5 c #f0f0ef",
"c5 c #efefee",
"d5 c #fdfdfd",
"e5 c #b6b6b6",
"f5 c #e6e7e6",
"g5 c #5e605c",
"h5 c #d7d8d6",
"i5 c #7b7d7a",
"j5 c #636560",
"k5 c #6d6f6a",
"l5 c #6c6e69",
"m5 c #7b7c78",
"n5 c #f1f1f0",
"o5 c #dbdbda",
"p5 c #c5c5c5",
"q5 c #fefefe",
"r5 c #fafafa",
"s5 c #f9f9f9",
"t5 c #fcfcfc",
"u5 c #efefef",
"v5 c #b0b0b0",
"w5 c #cacbc9",
"x5 c #5f625e",
"y5 c #91938f",
"z5 c #c6c8c5",
"06 c #787975",
"16 c #8b8d8a",
"26 c #bdbebc",
"36 c #d6d7d5",
"46 c #babab9",
"56 c #dcdcdc",
"66 c #f8f8f8",
"76 c #f5f5f5",
"86 c #aaaaaa",
"96 c #d9d9d8",
":6 c #787976",
";6 c #d6d7d4",
"A6 c #6a6c68",
"B6 c #676864",
"C6 c #a2a3a0",
"D6 c #6b6d68",
"E6 c #757773",
"F6 c #8b8c8a",
"G6 c #babbb8",
"H6 c #bcbdba",
"I6 c #b5b6b4",
"J6 c #ababab",
"K6 c #aaaaa9",
"L6 c #ababaa",
"M6 c #c2c3c2",
"N6 c #979895",
"O6 c #a0a29f",
"P6 c #afb1ae",
"Q6 c #a5a6a3",
"R6 c #939591",
"S6 c #7f807c",
"T6 c #7a7c78",
"U6 c #7d7f7a",
"V6 c #858885",
"W6 c #a7a8a6",
"X6 c #abada9",
"Y6 c #abadaa",
"Z6 c #acadaa",
"a6 c #acaeaa",
"b6 c #aeb0ac",
"c6 c #babcb9",
"d6 c #c6c7c5",
"e6 c #989a96",
"f6 c #d0d2ce",
"g6 c #60625e",
"h6 c #5e615c",
"i6 c #7c7e7b",
"j6 c #91928f",
"k6 c #939492",
"l6 c #969895",
"m6 c #a5a7a3",
"n6 c #a8a9a6",
"o6 c #a7a9a5",
"p6 c #999b98",
"q6 c #959693",
"r6 c #9c9d9b",
"s6 c #a7a8a5",
"t6 c #a6a7a3",
"u6 c #8d8e8a",
"v6 c #575955",
"w6 c #a8aaa6",
"x6 c #989b95",
"y6 c #5b5e5a",
"z6 c #565854",
"07 c #565955",
"17 c #5a5b58",
"27 c #595a57",
"37 c #575a57",
"47 c #595c58",
"57 c #585a55",
"67 c #c6c8c4",
"77 c #9ea09d",
"87 c #b1b3ae",
"97 c #5b5d5a",
":7 c #acaea9",
";7 c #848682",
"A7 c #cfd1cd",
"B7 c #6b6d69",
"C7 c #b9bbb5",
"D7 c #585b56",
"E7 c #5b5c59",
"F7 c #a1a29d",
"G7 c #5c5d59",
"H7 c #595b58",
"I7 c #787a75",
"J7 c #c5c7c2",
"K7 c #5c5e5a",
"L7 c #777874",
"M7 c #adb0a9",
"N7 c #5a5c59",
"O7 c #9fa19c",
"P7 c #8e918b",
"Q7 c #5b5d59",
"R7 c #595b56",
"S7 c #b0b2ad",
"T7 c #6c6e6a",
"U7 c #5e605b",
"V7 c #bcbfb9",
"W7 c #5a5c56",
"X7 c #7e827c",
"Y7 c #a0a39c",
"Z7 c #5a5d58",
"a7 c #9fa19b",
"b7 c #848781",
"c7 c #595b57",
"d7 c #b1b3ad",
"e7 c #636561",
"f7 c #61635f",
"g7 c #b4b6b0",
"h7 c #82847e",
"i7 c #585956",
"j7 c #323839",
"k7 c #3b4041",
"l7 c #3a3f40",
"m7 c #363b3c",
"n7 c #33393a",
"o7 c #313639",
"p7 c #9a9d97",
"q7 c #7d807b",
"r7 c #5a5c58",
"s7 c #5b5c58",
"t7 c #949791",
"u7 c #9ea19a",
"v7 c #767975",
"w7 c #646665",
"x7 c #787b7a",
"y7 c #a9aaa8",
"z7 c #878885",
"08 c #888986",
"18 c #6d6f6b",
"28 c #555753",
"38 c #5d5f5b",
"48 c #828380",
"58 c #686b69",
"68 c #3c4041",
"78 c #8f928c",
"88 c #aeb0aa",
"98 c #585a56",
":8 c #747672",
";8 c #91948e",
"A8 c #b6b9b3",
"B8 c #a7aba6",
"C8 c #b8bbb5",
"D8 c #dddddc",
"E8 c #b7b8b6",
"F8 c #b0b1af",
"G8 c #9e9f9c",
"H8 c #71736e",
"I8 c #737570",
"J8 c #bbbcb9",
"K8 c #acadab",
"L8 c #363c3d",
"M8 c #939590",
"N8 c #656763",
"O8 c #5a5c57",
"P8 c #5c5e5b",
"Q8 c #484c4a",
"R8 c #595d5e",
"S8 c #adb0ae",
"T8 c #a8aaa8",
"U8 c #a7a9a7",
"V8 c #80827f",
"W8 c #6e716d",
"X8 c #848683",
"Y8 c #a1a3a1",
"Z8 c #5d6262",
"a8 c #414545",
"b8 c #5b5e59",
"c8 c #343a3b",
"d8 c #353b3c",
"e8 c #353a3b",
"                                                                                                ",
"                                                                                                ",
"                                                                                                ",
"                                                                                                ",
"                                                                                                ",
"                                              e8d8d8d8d8d8d8d8d8d8d8d8d8d8d8d8c8                ",
"                                        b8a8Z8Y8X8W8W8W8W8W8W8W8W8W8W8W8V8U8T8S8R8Q8P8O8        ",
"                                      N8M8L8K8J8I8H8H8H8H8H8H8H8H8H8H8H8G8F8E8D8C8B8A8;8:8      ",
"                                    9888786858483828282828282828282828281808z7y7x7w7v7u7t7s7    ",
"                                  r7q7p7O8  o7n7m7m7m7m7m7m7m7m7m7m7m7m7m7l7k7d8j7  i7t7h798    ",
"                                  98g7f7                                            e7d7c7      ",
"                                s7b7a7Z7                                          r7Y7X7W7      ",
"                                r7V7U7                                            T7S7R7        ",
"                              Q7P7O7N7                                          c7M7L7          ",
"                              K7J7r7                                          R7I788H7          ",
"                            G7O7F7E7                                          D7C7B7            ",
"                            f7A7c7                                          N7;7:7E7            ",
"                          978777Z7                                          r767f7              ",
"                574747473728:8c727474747171717O8O8O8474747s75707z6        y6x6w6y6              ",
"            v6e7u6t6s6s6r6q6q6p6o6o6o6o6n6n6n6n6n6n6n6n6m6l6k6j6i6h6z6    g6f6r7                ",
"          D7e6d6c6b6a6a6Z6Z6Z6Z6Z6Z6Y6Y6X6X6X6X6X6X6X6W6V6U6T6S6R6Q6T6z6E7P6O6E7                ",
"        E7N6M6L6K6K6K6K6K6K6K6K6K6K6K6K6K6K6J6I6H6H6G6F6E6D6D6D6D6:8C6B6A6;6O8                  ",
"        :69686766666666666666666666666666666564636362616D6D6D6D6D6D606g6z5y5c7                  ",
"      x5w5v5u5t5s5r5r5r5r5r5r5r5r5r5r5r5r5q5p5o5n5n5K8m5D6D6D6l5l5k5j5i5h5H7                    ",
"      g5f5e5d5c5c5b5n5a5Z5Y5X5W576V5U5T5s5s5S5R5Q5P5K8k5l5k5k5O5O5l5Q7N5M5v6                    ",
"      L5K5o5J5I5H5G5G5F5E5D5C5B5A5;5:5c5V59585D8D87565O5O555555545e73525e715                    ",
"    05z4y4x4E5w4v4u4t4s4r4q4p4o4n4m4I5l4Z5k4j4i4i485h4554545H8H8g4f4e4d4m5c4b4                  ",
"  a4Z4Y4N8D6l5X4W4O5V4U4T4S4R4Q4P4O4w4u4A5N4M4M4M4z5L4H8K4K4K4J4I4H4G4F4E4D4C4                  ",
"  v6B4A4;4:494848474Q764544434241404z3y3x3w3v3v3v3u3t3I8I8s3g4r3q3r6p355o3n3v6                  ",
"  c7m3l3k3k3j3i3i3h3g3f3e3d3c3b3a3Z3Y3X3W3v577V3U3T3S3S3S3R3Q3P3O3N3M3I7L3e6z6                  ",
"  Z4K3J3I3I3I3I3I3H3G3F3E3D3D3D3D3D3D3D3C3B7B3A3;3:393R383837363534333231303v6                  ",
"  z2y2x2w2v2v2v2u2I3t2m39484s2s2s2s2s2s2r2q2p2U6o2n2D4I7m2m2l2k2j2O6k293i2h257                  ",
"  g2f2e2d2d2d2d2d2c2b2a2Z2Z2Z2Z2Y2X2X2W2W2V2U2T2S2R2Q2232393P2O2N2M2L2U6K2J2D7                  ",
"    I2H2G2F2E2E2E2D2D2D2C2C2B2B2B2A2A2;2;2D2:292L4827262626223P25242L332352212                  ",
"    02z1y1y1x1x1w1w1v1v1v1v1u1t1t1t1s1s1s1r1q1p1o1n1m1U6L3L3323232l1l1o3k1j1                    ",
"    O8i1h1g1g1f1f1f1e1e1d1d1d1c1b1b1b1b1a1a1Z1Y1X1W1Q6V1l1l1l1U1U1o3o3T1S1v6                    ",
"    R1Q1P1O1N1N1N1N1M1L1K1K1K1K1K1K1J1I1H1H1G1F1E1D1S2C1U1o3o3V1V1V1B1A1;1v6:1                  ",
"      918171616151515151515151413121212121111101z0s7y016x0V1B1B1w0w0v0u657u0z6                  ",
"        t0s0r0q0q0q0q0q0q0q0p0p0o0o0o0o0o0o0r0r0n0m0X1l0U6B1E4E4k0Q2j6G7j0i0h0                  ",
"        g0f0e0d0515151c0c0b061616161616161a0Z0Y0X0W0V0U0V8T0S0R0Q0P002O0N0M0                    ",
"          L0K0J0M1I0N1N1N1N1N1O1H0G0G0G0I0I0I0H0H0O1H0F057E002K757D0C0B028                      ",
"            A0R1;0:090g2g2g2g2807060606060605050505050403028282820;01000                        ",
"                                                                                                ",
"                                                                                                ",
"                                                                                                ",
"                                                                                                ",
"                                                                                                ",
"                                                                                                "};
