/* XPM */
static char *image[] = {
"48 48 388 2",
"   c None",
"00 c #a0a0a0",
"10 c #a2a2a2",
"20 c #d3dae4",
"30 c #e3cece",
"40 c #dbdbdb",
"50 c #a1a1a1",
"60 c #d9d9d9",
"70 c #d1d9e6",
"80 c #e3cdcd",
"90 c #dcdcdc",
":0 c #dadada",
";0 c #a3a3a3",
"A0 c #cfd4dc",
"B0 c #cad6e9",
"C0 c #d7cad3",
"D0 c #d1d7e0",
"E0 c #cdd3dc",
"F0 c #a4a4a4",
"G0 c #d3dbe6",
"H0 c #ddddde",
"I0 c #e4cece",
"J0 c #d7d7d7",
"K0 c #cdd3db",
"L0 c #ccd8ea",
"M0 c #d2d8e3",
"N0 c #d5d9e1",
"O0 c #d3d9e2",
"P0 c #b5b6b9",
"Q0 c #b2b3b6",
"R0 c #a9aaaa",
"S0 c #afb0b2",
"T0 c #acadae",
"U0 c #dccdd3",
"V0 c #d6dbe1",
"W0 c #d0d4da",
"X0 c #d5dce6",
"Y0 c #dcdee0",
"Z0 c #c7c7c7",
"a0 c #c6c6c4",
"b0 c #878466",
"c0 c #9f9c80",
"d0 c #e5cfcf",
"e0 c #d6d6d6",
"f0 c #cfd3d9",
"g0 c #d7dce2",
"h0 c #a8a8a8",
"i0 c #aeaeaf",
"j0 c #b2b3b4",
"k0 c #a3a5a8",
"l0 c #999a9d",
"m0 c #979685",
"n0 c #aca45e",
"o0 c #2a281b",
"p0 c #1d1c14",
"q0 c #a7a89e",
"r0 c #aeafb0",
"s0 c #a7a7a7",
"t0 c #ccd2da",
"u0 c #aaaaaa",
"v0 c #dcdfe2",
"w0 c #bfbfbf",
"x0 c #c1be9f",
"y0 c #cac06a",
"z0 c #d6cd71",
"01 c #efe9b4",
"11 c #a7a48d",
"21 c #535036",
"31 c #dfdfdf",
"41 c #d4d4d4",
"51 c #ababab",
"61 c #ccd1d9",
"71 c #cfdae9",
"81 c #d2dbe7",
"91 c #d4dae3",
":1 c #b1b3b6",
";1 c #969696",
"A1 c #a0a2a5",
"B1 c #837f56",
"C1 c #c7bd5b",
"D1 c #e0d784",
"E1 c #efe9b1",
"F1 c #e7e1a7",
"G1 c #b3b092",
"H1 c #b2b3b5",
"I1 c #b1b2b3",
"J1 c #b1b2b4",
"K1 c #b5b7b9",
"L1 c #adaeaf",
"M1 c #b6b8bb",
"N1 c #dacdd6",
"O1 c #d5dbe4",
"P1 c #cad0d9",
"Q1 c #adadad",
"R1 c #d9dfe6",
"S1 c #dbdee3",
"T1 c #646464",
"U1 c #756e2c",
"V1 c #e8e098",
"W1 c #efe9b2",
"X1 c #f2edc1",
"Y1 c #f8f5df",
"Z1 c #ded78c",
"a1 c #e6d0d0",
"b1 c #e0e0e0",
"c1 c #d3d3d3",
"d1 c #aeaeae",
"e1 c #c8ced7",
"f1 c #a5a5a5",
"g1 c #979797",
"h1 c #939393",
"i1 c #b5bbc1",
"j1 c #606367",
"k1 c #43433c",
"l1 c #bfb554",
"m1 c #f2edc0",
"n1 c #f5f1d0",
"o1 c #f8f5de",
"p1 c #f5f2d1",
"q1 c #c1bd8b",
"r1 c #bbbdc0",
"s1 c #aeafaf",
"t1 c #dbcdd6",
"u1 c #c9cfd7",
"v1 c #666666",
"w1 c #5e5c40",
"x1 c #cfc775",
"y1 c #f8f5dc",
"z1 c #fbfaed",
"02 c #e5de99",
"12 c #dddcd8",
"22 c #dedede",
"32 c #dddddd",
"42 c #e7d1d1",
"52 c #e1e1e1",
"62 c #d2d2d2",
"72 c #c9ced6",
"82 c #cad0d8",
"92 c #babfc7",
":2 c #b4bcc6",
";2 c #b4bcc7",
"A2 c #b7bcc4",
"B2 c #636569",
"C2 c #68664d",
"D2 c #c7bf6e",
"E2 c #f0ecc0",
"F2 c #d8d497",
"G2 c #d6dce5",
"H2 c #c7cdd6",
"I2 c #acacac",
"J2 c #c2c2c2",
"K2 c #bec0c5",
"L2 c #bbc0c6",
"M2 c #696969",
"N2 c #5b5b5b",
"O2 c #535351",
"P2 c #4a472b",
"Q2 c #d4d3ce",
"R2 c #e8d2d2",
"S2 c #e3e3e3",
"T2 c #d1d1d1",
"U2 c #adafb4",
"V2 c #bbbfc4",
"W2 c #b8bec6",
"X2 c #6c7077",
"Y2 c #9c9c9c",
"Z2 c #b8b9bb",
"a2 c #b3b3b4",
"b2 c #bbbcbe",
"c2 c #bebfc1",
"d2 c #b8b9ba",
"e2 c #b1b2b2",
"f2 c #dcced7",
"g2 c #d7dde6",
"h2 c #c9cdd3",
"i2 c #b0b0b0",
"j2 c #9a9a9a",
"k2 c #737476",
"l2 c #5c5c5c",
"m2 c #545454",
"n2 c #e9d3d3",
"o2 c #e4e4e4",
"p2 c #cfcfcf",
"q2 c #a9a9a9",
"r2 c #abafb4",
"s2 c #b9bec6",
"t2 c #6f7276",
"u2 c #202020",
"v2 c #1f1f1f",
"w2 c #9d9d9d",
"x2 c #bec0c3",
"y2 c #bdbfc2",
"z2 c #ddcfd8",
"03 c #d8dee7",
"13 c #c8ccd2",
"23 c #777777",
"33 c #3f3f3f",
"43 c #252525",
"53 c #e5e5e5",
"63 c #b1b1b1",
"73 c #c7cace",
"83 c #787c81",
"93 c #212121",
":3 c #454545",
";3 c #555555",
"A3 c #bfc1c4",
"B3 c #bdbec1",
"C3 c #b5b5b6",
"D3 c #d9dfe8",
"E3 c #c7cbd0",
"F3 c #b3b3b3",
"G3 c #828282",
"H3 c #5d5d5d",
"I3 c #292929",
"J3 c #cccccc",
"K3 c #ead4d4",
"L3 c #e6e6e6",
"M3 c #cdcdcd",
"N3 c #b2b2b2",
"O3 c #5f5f5f",
"P3 c #343435",
"Q3 c #3e3e3e",
"R3 c #585858",
"S3 c #222222",
"T3 c #9f9f9f",
"U3 c #babbbc",
"V3 c #bbbcbd",
"W3 c #c2c5c8",
"X3 c #c0c2c5",
"Y3 c #bcbdbf",
"Z3 c #b9babb",
"a3 c #c1c3c6",
"b3 c #ddd0d9",
"c3 c #dae0e9",
"d3 c #c6cacf",
"e3 c #535353",
"f3 c #919191",
"g3 c #747474",
"h3 c #464646",
"i3 c #404040",
"j3 c #282828",
"k3 c #ebd5d5",
"l3 c #e7e7e7",
"m3 c #cbcbcb",
"n3 c #4e4e4e",
"o3 c #8f8f8f",
"p3 c #b9b9b9",
"q3 c #999999",
"r3 c #4c4c4c",
"s3 c #565656",
"t3 c #5e5e5e",
"u3 c #272829",
"v3 c #c0c5cd",
"w3 c #dfd2db",
"x3 c #c6cace",
"y3 c #8a5a7f",
"z3 c #b577a7",
"04 c #868486",
"14 c #b4b4b4",
"24 c #b7b7b7",
"34 c #848484",
"44 c #575757",
"54 c #272729",
"64 c #cacaca",
"74 c #ecd6d6",
"84 c #c9c9c9",
"94 c #815476",
":4 c #c085b1",
";4 c #e5a9d6",
"A4 c #d9b0ce",
"B4 c #a6a6a6",
"C4 c #afafaf",
"D4 c #c6c6c6",
"E4 c #3e3f40",
"F4 c #bcc6d8",
"G4 c #dce2eb",
"H4 c #bbbbbc",
"I4 c #c7cacd",
"J4 c #b8b8b8",
"K4 c #c5c8cc",
"L4 c #946187",
"M4 c #e5aad7",
"N4 c #f5bbe7",
"O4 c #dfa6d1",
"P4 c #b091a8",
"Q4 c #bbbbbb",
"R4 c #b5b5b5",
"S4 c #505050",
"T4 c #d0d0d0",
"U4 c #ca8fbb",
"V4 c #ecb2de",
"W4 c #e9afdb",
"X4 c #e9afda",
"Y4 c #e2b8d8",
"Z4 c #beb7bd",
"a4 c #565658",
"b4 c #c7ccd4",
"c4 c #d2def2",
"d4 c #c0c1c3",
"e4 c #c4c6c8",
"f4 c #c6c8cb",
"g4 c #c5c7ca",
"h4 c #c6c8cc",
"i4 c #bababa",
"j4 c #e0d3dc",
"k4 c #dde3ec",
"l4 c #c4c6ca",
"m4 c #916284",
"n4 c #cc91bd",
"o4 c #f3b9e5",
"p4 c #f8beea",
"q4 c #f3b7e4",
"r4 c #b378a5",
"s4 c #d1ccd0",
"t4 c #dbe3f0",
"u4 c #edd7d7",
"v4 c #c8c8c8",
"w4 c #916383",
"x4 c #c98db9",
"y4 c #eeb3df",
"z4 c #ae77a1",
"05 c #cac7d3",
"15 c #d3dff2",
"25 c #cbcdd1",
"35 c #bcbcbc",
"45 c #c7c9cc",
"55 c #c3c4c6",
"65 c #c8cace",
"75 c #bebebf",
"85 c #e1d4dd",
"95 c #dee4ed",
":5 c #c3c5c9",
";5 c #906887",
"A5 c #b7b0b6",
"B5 c #dce4f1",
"C5 c #eaeaea",
"D5 c #e9e9e9",
"E5 c #e8e8e8",
"F5 c #eed8d8",
"G5 c #ebebeb",
"H5 c #d4e0f3",
"I5 c #cdd0d4",
"J5 c #c6c7c9",
"K5 c #c1c2c3",
"L5 c #c9cbce",
"M5 c #c2c3c5",
"N5 c #c5c6c8",
"O5 c #c0c0c1",
"P5 c #c9cccf",
"Q5 c #bebebe",
"R5 c #dfe5ee",
"S5 c #c2c5c7",
"T5 c #dde5f2",
"U5 c #efd9d9",
"V5 c #ededed",
"W5 c #d4e0f4",
"X5 c #d3d7dc",
"Y5 c #c8cacc",
"Z5 c #c3c3c4",
"a5 c #c6c7c8",
"b5 c #ccced1",
"c5 c #cacccf",
"d5 c #c7c9cb",
"e5 c #c5c6c7",
"f5 c #cbcdd0",
"g5 c #c0c0c0",
"h5 c #e2d4dd",
"i5 c #e0e6ef",
"j5 c #c1c4c6",
"k5 c #dee6f3",
"l5 c #f0dada",
"m5 c #eeeeee",
"n5 c #c3c4c4",
"o5 c #d5e1f4",
"p5 c #e3d5de",
"q5 c #e1e7f0",
"r5 c #c2c4c6",
"s5 c #efefef",
"t5 c #dfe7f4",
"u5 c #f1dbdb",
"v5 c #f0f0f0",
"w5 c #e0e9f5",
"x5 c #f3dfdf",
"y5 c #f1f1f1",
"z5 c #c3c3c3",
"06 c #c5c5c5",
"16 c #c4c4c5",
"26 c #c4c4c4",
"                                                                                                ",
"                                                                                                ",
"                                                                                                ",
"              26262626262626262626262626262626262626262626262626262626162626262606              ",
"              z5y5y5y5y5x5y5y5y5y5y5y5y5y5y5y5y5y5y5y5y5y5y5y5y5y5y5y5w5y5y5y5y5z5              ",
"              26v5v5v5v5u5v5v5v5v5v5v5v5v5v5v5v5v5v5v5v5v5v5v5v5v5v5v5t5v5v5v5v5z5              ",
"              26v5v5v5v5u5v5v5v5v5v5v5v5v5v5v5v5v5v5v5v5v5v5v5v5v5v5v5t5v5v5v5v526              ",
"              26s5s5s5s5u5s5s5s5s5s5s5s5s5s5s5s5s5s5s5s5s5s5s5s5s5s5s5t5s5s5s5s526              ",
"              26s5s5s5s5u5s5s5s5s5s5s5s5s5s5s5s5s5s5s5s5s5s5s5s5s5s5s5t5s5s5s5s526              ",
"              r5q5q5q5q5p5q5q5q5q5q5q5q5q5q5q5q5q5q5q5q5q5q5q5q5q5q5q5o5q5q5q5q5n5              ",
"              26m5m5m5m5l5m5m5m5m5m5m5m5m5m5m5m5m5m5m5m5m5m5m5m5m5m5m5k5m5m5m5m526              ",
"              j5i5i5i5i5h5g5g5f5g5e5d5g5c5f5g5b5g5g5g5g5a5e5g5g5Z5Y5X5W5i5i5i5i5r5              ",
"              26V5V5V5V5U5V5V5V5V5V5V5V5V5V5V5V5V5V5V5V5V5V5V5V5V5V5V5T5V5V5V5V526              ",
"              S5R5R5R5R5h5Q5Q5Q5P5O5N5M5L5O5d5K5J5Q5N5M5Q5Q5I5R5R5R5R5H5R5R5R5R5S5              ",
"              06G5G5G5G5F5E5E5E5D5E5E5E5E5D5E5E5D5E5E5E5E5C5G5G5G5G5G5B5G5G5G5G5A5;5            ",
"              :59595959585757575L575757575657575657555N5754535352595951595959505z4y4x4w4        ",
"              v4C5C5C5C5u4C5C5C5C5C5C5C5C5C5C5C5C5C5C5C5C5C5C5C5C5C5C5t4C5C5s4r4q4p4o4n4m4      ",
"              l4k4k4k4k4j4i4i4i4i4h4i4i4i4i4g4i4f4i4i4i4i4e4i4i4f4d4f4c4k4b4a4Z4Y4X4W4V4U4      ",
"              v4D5D5D5D5u4D5D5D5D5D5D5D5D5D5D5D5D5D5D5D5D5D5D5D5D5D5D5t4T4S4R4v4Q4P4O4N4M4L4    ",
"              K4k4k4k4k4j4J4I4H4J4J4J4J4J4G4k4k4k4k4k4k4k4k4k4k4k4k4k4F4E4g5z5D4C4B4A4;4:494    ",
"              84E5E5E5E574E5E5E5E5E5E5E5E5E5E5E5E5E5E5E5E5E5E5E5E5E564544434Q524143504z3y3      ",
"              x3G4G4G4G4w3G4G4G4G4G4G4G4G4G4G4G4G4G4G4G4G4G4G4G4G4v3u344t3s3r3q3p3o3n3          ",
"              m3l3l3l3l3k3l3l3l3l3l3l3l3l3l3l3l3l3l3l3l3l3l3l3l384j344t3s3i3h3g3f3e3            ",
"              d3c3c3c3c3b31414a314Z3Y314X3a314W314141414V3U314T3S344t3s3i3h3R3Q3P3O3            ",
"            N3M3L3L3L3L3K3L3L3L3L3L3L3L3L3L3L3L3L3L3L3L3L3L3J3I3s3H3s3i3h344Q3S3G3F3            ",
"            N3E3D3D3D3D3b3F3F3F3C3B3F3F3F3A3F3A3F3F3F3A3F3T3S3;3H344i3:344Q3938373F3            ",
"            63M353535353K3535353535353535353535353535353J343;3H344i3:3443393232635N3            ",
"            N31303030303z263636363A363636363y263x26363w2v2;3H344i3:34433u2t2s2s2r2q2            ",
"            63p2o2o2o2o2n2o2o2o2o2o2o2o2o2o2o2o2o2o2m343m2l244i3:34433u2k2z5z5z563j2            ",
"            i2h2g2g2g2g2f2C4C4C4x2e2d2C3c2N3b2a2Z2Y2u2e3l244i3:34433u2X2W2V2V2V2U2f3            ",
"            63T2S2S2S2S2R2S2S2S2S2S2S2S2S2S2S2S2Q2P2O2N244i3:34433v2M2L2K2J2J2J2Q5I2            ",
"            i2H2G2G2G2G2f2G2G2G2G2G2G2G2G2G2G2G2F2E2D2C2i3:34433v2B2A2;2:2A2928272C4            ",
"            C4625252525242323232223232323222321202z1y1x1w14433u2v1g5g5V2V2J32252T2i2            ",
"            C4u1G2G2G2G2t1s1s1s1r1s1s1s1s1r1s1q1p1o1n1m1l1k1u2j1i1h1h1g1f1I2G2G2e1d1            ",
"            d1c1b1b1b1b1a1b1b1b1b1b1b1b1b1b1b1Z1Y1n1X1W1V1U1T1g5g5g5p2S1R1b1b1b1c1Q1            ",
"            I2P1O1O1O1O1N1q2q2q2M1L1K1J1I1H1G1F1n1X1E1D1C1B1A1f3;1:1918171O1O1O161I2            ",
"            514131313131a1313131313131313131211101z0y0x0w0w0g5p2223131v0g231313141u0            ",
"            u0t091919191N1s0s0s0r0J1K1s0s0q0p0o0n0m0l0o3o3k0L1s0s0j0i0h071g0g0g0f051            ",
"            q2e022222222d02222222222222222c0b0a0Z0D40606p2222222222222Y0X0222222e0u0            ",
"            q2W0V0V0V0V0U0f1f1f1T0S0R0Q0f1P0O0O0V0V0V0V0V0N0O0O0O0O0O0M0L0O0O0O0K0s0            ",
"            B4J032323232I032323232323232323232323232323232323232323232H0G0323232J0s0            ",
"            F0E0D0D0D0D0C0D0D0D0D0D0D0D0D0D0D0D0D0D0D0D0D0D0D0D0D0D0D0D0B0D0D0D0A0f1            ",
"            ;0:0909090908090909090909090909090909090909090909090909090907090909060;0            ",
"            50:040404040304040404040404040404040404040404040404040404040204040406010            ",
"            T30000000000000000000000000000000000000000000000000000000000000000000000            ",
"                                                                                                ",
"                                                                                                ",
"                                                                                                "};
