/* XPM */
static char *image[] = {
"32 32 517 2",
"   c None",
"00 c #456e55",
"10 c #446d54",
"20 c #466f56",
"30 c #9d592c",
"40 c #466d56",
"50 c #5d806b",
"60 c #6f8e7c",
"70 c #6d8d7a",
"80 c #5b7e69",
"90 c #4e745e",
":0 c #456d55",
";0 c #4b7159",
"A0 c #b86d29",
"B0 c #ec8f2a",
"C0 c #f08f2a",
"D0 c #f28f2a",
"E0 c #ec8f2d",
"F0 c #4b6f5a",
"G0 c #5d7e6a",
"H0 c #6b8b78",
"I0 c #678774",
"J0 c #577964",
"K0 c #4a6e59",
"L0 c #4f725d",
"M0 c #ac6f3f",
"N0 c #b96b27",
"O0 c #e98623",
"P0 c #f58f26",
"Q0 c #f88f26",
"R0 c #f2902d",
"S0 c #658672",
"T0 c #678874",
"U0 c #6e8e78",
"V0 c #668671",
"W0 c #5a7b67",
"X0 c #50715e",
"Y0 c #4e6f5d",
"Z0 c #51715e",
"a0 c #ac6d3f",
"b0 c #b96825",
"c0 c #e9801e",
"d0 c #f58920",
"e0 c #f88820",
"f0 c #f28c2b",
"g0 c #537061",
"h0 c #61826e",
"i0 c #638570",
"j0 c #648570",
"k0 c #72917c",
"l0 c #6b8976",
"m0 c #567464",
"n0 c #547262",
"o0 c #567564",
"p0 c #ac6c3e",
"q0 c #b96522",
"r0 c #e87919",
"s0 c #f5821b",
"t0 c #f7811b",
"u0 c #f1882a",
"v0 c #955228",
"w0 c #5a7468",
"x0 c #60836e",
"y0 c #648672",
"z0 c #688975",
"01 c #6c8c79",
"11 c #708f7d",
"21 c #769382",
"31 c #8aa292",
"41 c #607c6d",
"51 c #ad6938",
"61 c #9c5729",
"71 c #9a5627",
"81 c #a35d24",
"91 c #a55f24",
":1 c #a45e24",
";1 c #9e5926",
"A1 c #975327",
"B1 c #a66332",
"C1 c #a46031",
"D1 c #ba6320",
"E1 c #e97516",
"F1 c #f77d17",
"G1 c #f28729",
"H1 c #965226",
"I1 c #5b7469",
"J1 c #637c70",
"K1 c #789183",
"L1 c #7f978b",
"M1 c #81998d",
"N1 c #849b8f",
"O1 c #8aa094",
"P1 c #637b70",
"Q1 c #5b756a",
"R1 c #ac6633",
"S1 c #9c5523",
"T1 c #bd671f",
"U1 c #d2731b",
"V1 c #d57519",
"W1 c #cf7419",
"X1 c #cd751a",
"Y1 c #d07619",
"Z1 c #d2771b",
"a1 c #d4771b",
"b1 c #c56c1d",
"c1 c #aa5c20",
"d1 c #bc641e",
"e1 c #eb7716",
"f1 c #f67f18",
"g1 c #f77f18",
"h1 c #f28a2c",
"i1 c #975222",
"j1 c #5c786b",
"k1 c #5b7969",
"l1 c #5c7869",
"m1 c #9f5721",
"n1 c #bd651c",
"o1 c #e57617",
"p1 c #e17115",
"q1 c #e07516",
"r1 c #e07919",
"s1 c #e27b19",
"t1 c #e07b1a",
"u1 c #e07b19",
"v1 c #e17c1a",
"w1 c #e57c18",
"x1 c #e97d19",
"y1 c #ee7f1a",
"z1 c #e87a18",
"02 c #ef7a17",
"12 c #f78119",
"22 c #f28d30",
"32 c #98521e",
"42 c #9d551b",
"52 c #d57119",
"62 c #ea7515",
"72 c #e97314",
"82 c #ee7a15",
"92 c #eb7a16",
":2 c #e97816",
";2 c #e87916",
"A2 c #e87816",
"B2 c #e97a17",
"C2 c #ec7a16",
"D2 c #ee7c17",
"E2 c #f17e17",
"F2 c #f48018",
"G2 c #f78419",
"H2 c #f29132",
"I2 c #99521a",
"J2 c #9f5618",
"K2 c #d87418",
"L2 c #ea7415",
"M2 c #ed7615",
"N2 c #f47c15",
"O2 c #f37915",
"P2 c #f17815",
"Q2 c #ee7715",
"R2 c #ed7715",
"S2 c #ee7816",
"T2 c #ef7815",
"U2 c #f27915",
"V2 c #f47b16",
"W2 c #f57e17",
"X2 c #f68218",
"Y2 c #f7861a",
"Z2 c #f29436",
"a2 c #9a5216",
"b2 c #ab6020",
"c2 c #c86b16",
"d2 c #eb7a17",
"e2 c #ee7a16",
"f2 c #f47814",
"g2 c #f37814",
"h2 c #f27815",
"i2 c #f17814",
"j2 c #f27814",
"k2 c #f37815",
"l2 c #f37a14",
"m2 c #f57a15",
"n2 c #f57d16",
"o2 c #f58118",
"p2 c #f7851a",
"q2 c #f29739",
"r2 c #9c5112",
"s2 c #aa5a11",
"t2 c #ed8018",
"u2 c #ee7d16",
"v2 c #f47a15",
"w2 c #ed7b1c",
"x2 c #c56614",
"y2 c #aa5710",
"z2 c #a0530e",
"03 c #a4550f",
"13 c #b85d10",
"23 c #dc6d12",
"33 c #f47914",
"43 c #f47a14",
"53 c #f57c15",
"63 c #f58016",
"73 c #f78b1b",
"83 c #f29a3d",
"93 c #9d510e",
":3 c #a8580d",
";3 c #d37314",
"A3 c #ec7f18",
"B3 c #f58219",
"C3 c #f47e18",
"D3 c #df7a21",
"E3 c #a4540b",
"F3 c #af5c0f",
"G3 c #af5e0e",
"H3 c #a4550b",
"I3 c #c1620e",
"J3 c #f37b14",
"K3 c #f47d15",
"L3 c #f57f17",
"M3 c #f58419",
"N3 c #f7891b",
"O3 c #f78d1c",
"P3 c #f29d40",
"Q3 c #9e510a",
"R3 c #a25307",
"S3 c #ed861a",
"T3 c #f08519",
"U3 c #f48519",
"V3 c #ea862c",
"W3 c #a35408",
"X3 c #456d54",
"Y3 c #416b51",
"Z3 c #426c52",
"a3 c #476f55",
"b3 c #a9580a",
"c3 c #c7640d",
"d3 c #f47e15",
"e3 c #f58116",
"f3 c #f58518",
"g3 c #f58a1b",
"h3 c #f7901d",
"i3 c #f3a145",
"j3 c #9f5106",
"k3 c #b76209",
"l3 c #f0891a",
"m3 c #f58e1b",
"n3 c #f58718",
"o3 c #f58217",
"p3 c #f4841d",
"q3 c #bf6917",
"r3 c #b25e0a",
"s3 c #4a7056",
"t3 c #456d53",
"u3 c #647e5f",
"v3 c #728565",
"w3 c #6b8263",
"x3 c #507458",
"y3 c #466e53",
"z3 c #a45303",
"04 c #e97712",
"14 c #f58216",
"24 c #f58618",
"34 c #f58c1a",
"44 c #f7921d",
"54 c #f3a348",
"64 c #a15102",
"74 c #c8700e",
"84 c #f28f1e",
"94 c #f79520",
":4 c #f68d1c",
";4 c #f3973e",
"A4 c #a55502",
"B4 c #436c52",
"C4 c #5f7b5d",
"D4 c #647a5b",
"E4 c #697e60",
"F4 c #6b8364",
"G4 c #668164",
"H4 c #487055",
"I4 c #b36009",
"J4 c #cc680c",
"K4 c #f48418",
"L4 c #f5881a",
"M4 c #f58e1c",
"N4 c #f79420",
"O4 c #f4a74e",
"P4 c #a35300",
"Q4 c #cf7815",
"R4 c #f59829",
"S4 c #f7a035",
"T4 c #db9d58",
"U4 c #b15f07",
"V4 c #476f56",
"W4 c #5a785d",
"X4 c #638064",
"Y4 c #688467",
"Z4 c #668468",
"a4 c #628368",
"b4 c #53795e",
"c4 c #b8660e",
"d4 c #c4680d",
"e4 c #f59124",
"f4 c #f69527",
"g4 c #f79a2a",
"h4 c #f79b2a",
"i4 c #f4ad58",
"j4 c #a75601",
"k4 c #d07d1c",
"l4 c #f9a948",
"m4 c #f9ae52",
"n4 c #f9b561",
"o4 c #f3cc9d",
"p4 c #b1600a",
"q4 c #4a715a",
"r4 c #51775f",
"s4 c #567a60",
"t4 c #608369",
"u4 c #53795f",
"v4 c #b8660a",
"w4 c #c87215",
"x4 c #f8a033",
"y4 c #f5b566",
"z4 c #aa5902",
"05 c #cb883b",
"15 c #fbd9ac",
"25 c #fde9d0",
"35 c #e7c9a7",
"45 c #b66914",
"55 c #b9680d",
"65 c #4a6f5a",
"75 c #5e7d6a",
"85 c #638370",
"95 c #6a8a77",
":5 c #50745e",
";5 c #b6650b",
"A5 c #d78123",
"B5 c #f8a53c",
"C5 c #f1b975",
"D5 c #ae5d04",
"E5 c #b7680f",
"F5 c #c88335",
"G5 c #ba6c14",
"H5 c #b66509",
"I5 c #4c6f5b",
"J5 c #60816d",
"K5 c #63816e",
"L5 c #6d8c79",
"M5 c #6a8975",
"N5 c #4d705b",
"O5 c #b26004",
"P5 c #ea993a",
"Q5 c #f8ab46",
"R5 c #f8ad4a",
"S5 c #e2a862",
"T5 c #b66508",
"U5 c #537461",
"V5 c #4f715e",
"W5 c #648471",
"X5 c #688673",
"Y5 c #6e8d7a",
"Z5 c #71907d",
"a5 c #5e7e6b",
"b5 c #587865",
"c5 c #be6e11",
"d5 c #c67618",
"e5 c #f4a84a",
"f5 c #f9b04f",
"g5 c #fac073",
"h5 c #cd8631",
"i5 c #bc6a0d",
"j5 c #567565",
"k5 c #557563",
"l5 c #557463",
"m5 c #537261",
"n5 c #51705f",
"o5 c #5e7d6b",
"p5 c #6d8b79",
"q5 c #6f8d7b",
"r5 c #73907f",
"s5 c #759381",
"t5 c #718e7c",
"u5 c #527160",
"v5 c #bc6b0a",
"w5 c #e1963b",
"x5 c #f8b457",
"y5 c #f9b558",
"z5 c #f9b559",
"06 c #f5cd98",
"16 c #ba6808",
"26 c #557364",
"36 c #567465",
"46 c #617e6f",
"56 c #6a8676",
"66 c #738f7e",
"76 c #6f8b7b",
"86 c #6d8979",
"96 c #708d7c",
":6 c #779382",
";6 c #789483",
"A6 c #799584",
"B6 c #789584",
"C6 c #5b7869",
"D6 c #5d7a6b",
"E6 c #c67616",
"F6 c #c97a1b",
"G6 c #f4b35c",
"H6 c #f9bb62",
"I6 c #facc89",
"J6 c #d49240",
"K6 c #c47514",
"L6 c #587767",
"M6 c #5f7c6d",
"N6 c #7b9787",
"O6 c #7c9888",
"P6 c #668273",
"Q6 c #5e7a6c",
"R6 c #c16e0b",
"S6 c #eaaa54",
"T6 c #f9bf6a",
"U6 c #f9c06b",
"V6 c #fac67a",
"W6 c #eabf86",
"X6 c #c26f0c",
"Y6 c #5b7569",
"Z6 c #5f7b6d",
"a6 c #617c6e",
"b6 c #5d786a",
"c6 c #587366",
"d6 c #678273",
"e6 c #809b8b",
"f6 c #7f9a8a",
"g6 c #6a8476",
"h6 c #607b6d",
"i6 c #c6750f",
"j6 c #e09c43",
"k6 c #f8c272",
"l6 c #fac574",
"m6 c #faca80",
"n6 c #f0cd9e",
"o6 c #c5730e",
"p6 c #597267",
"q6 c #738e7e",
"r6 c #809a8a",
"s6 c #819c8b",
"t6 c #749280",
"u6 c #819b8b",
"v6 c #7d9788",
"w6 c #88a292",
"x6 c #8ca495",
"y6 c #8fa799",
"z6 c #93aa9c",
"07 c #97ada0",
"17 c #96ac9f",
"27 c #899f92",
"37 c #657d72",
"47 c #647c71",
"57 c #cc7c17",
"67 c #dc983d",
"77 c #facd85",
"87 c #face85",
"97 c #facd83",
":7 c #fbd495",
";7 c #ecc48f",
"A7 c #c9760f",
"B7 c #5f776c",
"C7 c #70897c",
"D7 c #87a192",
"E7 c #7e9789",
"F7 c #889f90",
"G7 c #a5b8ad",
"H7 c #a9bbb1",
"I7 c #adbfb4",
"J7 c #b1c2b8",
"K7 c #b6c6bd",
"L7 c #bac9c0",
"M7 c #b4c3bb",
"N7 c #869a90",
"O7 c #6b8279",
"P7 c #ce801d",
"Q7 c #dfa862",
"R7 c #fdeed6",
"S7 c #fdeed7",
"T7 c #fdefda",
"U7 c #f8e6ce",
"V7 c #dca359",
"W7 c #cb7910",
"X7 c #859b8f",
"Y7 c #a3b3aa",
"Z7 c #95a79d",
"a7 c #c2cfc7",
"b7 c #cdd7d1",
"c7 c #ced7d2",
"d7 c #cdd6d1",
"e7 c #bfcbc4",
"f7 c #a5b3ac",
"g7 c #7a8e85",
"h7 c #5e766c",
"i7 c #6f867c",
"j7 c #e0a962",
"k7 c #ce7b11",
"l7 c #e8bf8c",
"m7 c #fcf3ea",
"n7 c #f6e5d0",
"o7 c #ecca9e",
"p7 c #dc9f51",
"q7 c #ce7b10",
"r7 c #d58822",
"s7 c #627a6f",
"t7 c #5c746a",
"u7 c #5b7369",
"v7 c #5d756b",
"w7 c #657b72",
"x7 c #677e74",
"y7 c #d17c10",
"z7 c #d27e12",
"08 c #d07b0c",
"18 c #cf790a",
"28 c #d17c0f",
"38 c #d27f14",
"                                                                ",
"                    3828181808z7y7      x7w7v7u7u7u7u7t7s7      ",
"              r7q7p7o7n7m7l7k7j7  i7h7g7f7e7d7c7b7a7Z7Y7X7v7    ",
"            W7V7U7T7S7R7Q7P7  O7h7N7M7L7K7J7I7H7G7F7  E7D7C7B7  ",
"          A7;7:79787776757  473727170717z6y6x6w6v6u6t6s6r6q6p6  ",
"        o6n6m6l6l6k6j6i6  h6g6f6e6e6e6e6e6e6e6e6d6c6b6a6Z6c6Y6  ",
"      X6W6V6U6U6T6S6R6  Q6P6O6O6O6O6O6O6O6O6O6O6N6M6L6          ",
"    K6J6I6H6H6H6G6F6E6D6C6B6A6A6A6A6A6;6:6:69686766656463626    ",
"    1606z5y5y5x5w5v5  u5t5s5s5s5s5r5q5p5o5n5m5l5l5l5l5k5j5      ",
"  i5h5g5f5f5f5e5d5c5b5a5Z5Z5Z5Z5Y5X5W5V5U5                      ",
"  T5S5R5Q5Q5Q5P5O5  N5M5Y5Y5Y5L5K5J5I5    H5G5F5E5              ",
"  D5C5B5B5B5B5A5;5  :595959595857565  554535251505              ",
"  z4y4x4x4x4x4w4v4  u4t4t4t4t4s4r4q4  p4o4n4m4l4k4              ",
"  j4i4h4g4f4e4d4c4  b4a4Z4Y4X4W4V4  U4T4S4h4h4R4Q4              ",
"  P4O4N4M4L4K4J4I4  H4G4F4E4D4C4B4  A4;4:4N4948474              ",
"  64544434241404z3  y3x3w3v3u3t3s3r3q3p3o3n3m3l3k3              ",
"  j3i3h3g3f3e3d3c3b3  a3Z3Y3X3    W3V3d3e3U3T3S3R3              ",
"  Q3P3O3N3M3L3K3J3I3H3G3      F3E3D3C3K3L3B3A3;3:3              ",
"  93837373f363534333231303z2y2x2w2v2435363u2t2s2                ",
"  r2q2N3N3p2o2n2m2l2k2j2i2i2h2j2g2f2m2n2e2d2c2b2                ",
"  a2Z2Y2Y2Y2X2W2V2U2T2S2R2R2Q2T2P2O2N2M2L2K2J2                  ",
"  I2H2G2G2G2G2F2E2D2C2B2A2;2:292e28272625242                    ",
"  322212121202z1y1x1w1v1u1t1s1r1q1p1o1n1m1    l1k1k1k1j1        ",
"  i1h1g1g1f1e1d1c1b1a1Z1Y1X1W1V1U1T1S1R1  Q1P1O1N1M1L1K1J1I1    ",
"  H1G1F1F1W2E1D1C1B1A1;1:19181716151    c64131211101z0y0x0C6w0  ",
"  v0u0t0t0s0r0q0p0                o0n0m0l0k0j0i0i0i0i0i0i0h0g0  ",
"  v0f0e0e0d0c0b0a0          Z0Y0X0W0V0U0z0T0T0T0T0T0T0T0T0S0Y0  ",
"  v0R0Q0Q0P0O0N0M0            L0K0J0I0H0H0H0H0H0H0H0H0H0H0G0F0  ",
"  v0E0D0D0C0B0A0M0                ;0:09080y09570606060015040    ",
"  v0v0v0v0v0v0v030                      2010Y3Y3Y3Y3Y3Y300      ",
"                                                                ",
"                                                                "};
