/* XPM */
static char *image[] = {
"48 48 527 2",
"   c None",
"00 c #37576d",
"10 c #36576d",
"20 c #818e97",
"30 c #3a596f",
"40 c #bac0c4",
"50 c #3b5b71",
"60 c #7f909b",
"70 c #c4c7ca",
"80 c #3e5d72",
"90 c #e7e9ea",
":0 c #e1e4e6",
";0 c #ccd3d9",
"A0 c #a8b7c4",
"B0 c #96a9ba",
"C0 c #829aad",
"D0 c #738ea4",
"E0 c #64819a",
"F0 c #5e7d97",
"G0 c #5f7e98",
"H0 c #6d89a0",
"I0 c #7b95a9",
"J0 c #869cae",
"K0 c #a1b2c0",
"L0 c #b3c0ca",
"M0 c #cdd4da",
"N0 c #dee1e4",
"O0 c #e5e6e7",
"P0 c #eaebeb",
"Q0 c #3f5e74",
"R0 c #dcdfe2",
"S0 c #8ba1b2",
"T0 c #718ca2",
"U0 c #67849b",
"V0 c #5a7994",
"W0 c #5d7b95",
"X0 c #5f7d97",
"Y0 c #5e7d96",
"Z0 c #5c7b95",
"a0 c #648299",
"b0 c #6a879d",
"c0 c #748ea3",
"d0 c #8299ac",
"e0 c #a1b1bf",
"f0 c #cdd4d9",
"g0 c #416076",
"h0 c #e4e6e7",
"i0 c #b9c4cc",
"j0 c #748da2",
"k0 c #5f7d96",
"l0 c #8298ab",
"m0 c #8ca1b1",
"n0 c #99abb9",
"o0 c #aebbc6",
"p0 c #b1bec8",
"q0 c #b9c4cd",
"r0 c #ccd2d8",
"s0 c #d1d7db",
"t0 c #d0d6da",
"u0 c #cad1d7",
"v0 c #b2bfc8",
"w0 c #afbcc6",
"x0 c #a1b2be",
"y0 c #839aac",
"z0 c #6c879e",
"01 c #607d96",
"11 c #567590",
"21 c #557590",
"31 c #5a7993",
"41 c #718ba0",
"51 c #436277",
"61 c #69859b",
"71 c #7f96a9",
"81 c #b7c2cb",
"91 c #d8dcde",
":1 c #e6e7e7",
";1 c #bac4cd",
"A1 c #638097",
"B1 c #53738e",
"C1 c #5d7b94",
"D1 c #7891a5",
"E1 c #456479",
"F1 c #a1b1bd",
"G1 c #c6ced4",
"H1 c #b9c3cc",
"I1 c #bac4cc",
"J1 c #c0c9d0",
"K1 c #c8cfd5",
"L1 c #d3d7db",
"M1 c #ccd2d6",
"N1 c #bdc6ce",
"O1 c #68849a",
"P1 c #7992a5",
"Q1 c #b8c3cb",
"R1 c #dde0e1",
"S1 c #47667b",
"T1 c #d4d8da",
"U1 c #9cadba",
"V1 c #7f96a8",
"W1 c #658198",
"X1 c #56758e",
"Y1 c #4f6f8a",
"Z1 c #597790",
"a1 c #718b9f",
"b1 c #bec7ce",
"c1 c #d8dadd",
"d1 c #869bac",
"e1 c #98a9b7",
"f1 c #4a687d",
"g1 c #afbac4",
"h1 c #627e94",
"i1 c #718a9e",
"j1 c #768ea2",
"k1 c #6e889d",
"l1 c #5a7790",
"m1 c #51708b",
"n1 c #4e6e89",
"o1 c #5c7991",
"p1 c #c5ccd2",
"q1 c #4c6a7f",
"r1 c #cad0d4",
"s1 c #a4b2bd",
"t1 c #a2b0bc",
"u1 c #c1c9cf",
"v1 c #d1d5d9",
"w1 c #cdd3d7",
"x1 c #c3cad1",
"y1 c #a7b5c0",
"z1 c #70899d",
"02 c #647f96",
"12 c #bbc4cc",
"22 c #4e6c81",
"32 c #dedfe0",
"42 c #e3e4e4",
"52 c #ccd1d6",
"62 c #c7ced3",
"72 c #516e83",
"82 c #d8dbde",
"92 c #b6c0c9",
":2 c #b7c1c9",
";2 c #d7dadd",
"A2 c #dcdee0",
"B2 c #ced4d7",
"C2 c #c1c9d0",
"D2 c #9aaab7",
"E2 c #889cac",
"F2 c #859aaa",
"G2 c #859aab",
"H2 c #8499aa",
"I2 c #9fafbb",
"J2 c #b6c1c9",
"K2 c #cbd1d5",
"L2 c #dfe0e1",
"M2 c #d6d6d6",
"N2 c #537085",
"O2 c #abb8c2",
"P2 c #7d94a6",
"Q2 c #b2bec7",
"R2 c #e2e3e4",
"S2 c #7e94a6",
"T2 c #59778f",
"U2 c #57748d",
"V2 c #57758e",
"W2 c #58758e",
"X2 c #4d6c87",
"Y2 c #5f7c92",
"Z2 c #c2cad0",
"a2 c #d7d7d7",
"b2 c #567287",
"c2 c #dcdfe0",
"d2 c #8b9eae",
"e2 c #8b9fae",
"f2 c #cbd1d6",
"g2 c #e3e5e5",
"h2 c #dadcdf",
"i2 c #7991a3",
"j2 c #889cad",
"k2 c #95a7b5",
"l2 c #9cacba",
"m2 c #acb9c3",
"n2 c #b5c0c9",
"o2 c #b5c0c8",
"p2 c #b7c1ca",
"q2 c #a5b3be",
"r2 c #9babb9",
"s2 c #8ca0af",
"t2 c #637f95",
"u2 c #99aab7",
"v2 c #58758a",
"w2 c #c9d0d5",
"x2 c #859aac",
"y2 c #4c6c87",
"z2 c #92a5b4",
"03 c #e1e2e3",
"13 c #dee0e2",
"23 c #9bacb9",
"33 c #8fa1b1",
"43 c #d0d6d9",
"53 c #d8d8d8",
"63 c #5b778c",
"73 c #768fa2",
"83 c #4f6f89",
"93 c #7a92a4",
":3 c #e4e5e6",
";3 c #e7e8e8",
"A3 c #e4e6e6",
"B3 c #ccd2d7",
"C3 c #c4cbd2",
"D3 c #c6ced3",
"E3 c #c6cdd3",
"F3 c #bfc8cf",
"G3 c #e2e4e4",
"H3 c #d9d9d9",
"I3 c #5d798e",
"J3 c #50708a",
"K3 c #52718b",
"L3 c #b8c2ca",
"M3 c #dee1e3",
"N3 c #c3cbd2",
"O3 c #a6b4c0",
"P3 c #7d93a5",
"Q3 c #6e8598",
"R3 c #6687a2",
"S3 c #5d83a2",
"T3 c #647f95",
"U3 c #637f96",
"V3 c #688399",
"W3 c #69849a",
"X3 c #738b9f",
"Y3 c #a9b7c1",
"Z3 c #d2d8db",
"a3 c #dadada",
"b3 c #607c90",
"c3 c #506f89",
"d3 c #516f8a",
"e3 c #acb9c5",
"f3 c #e3e5e6",
"g3 c #a7b5c1",
"h3 c #768da2",
"i3 c #7890a4",
"j3 c #8b9ead",
"k3 c #92a8b8",
"l3 c #91acc3",
"m3 c #adb6bc",
"n3 c #b8bcbd",
"o3 c #b1bfcc",
"p3 c #b1c1cd",
"q3 c #b4c0ca",
"r3 c #bbc5cd",
"s3 c #8ea2b1",
"t3 c #54718b",
"u3 c #4e6d88",
"v3 c #53718b",
"w3 c #91a4b3",
"x3 c #dbdbdb",
"y3 c #637e93",
"z3 c #8ea1b1",
"04 c #58768f",
"14 c #5e7a92",
"24 c #b6c2cb",
"34 c #d2d7dc",
"44 c #ced5da",
"54 c #d7dbdf",
"64 c #d4dadd",
"74 c #d3d8dc",
"84 c #d8dce0",
"94 c #dfe2e5",
":4 c #e4e7e8",
";4 c #e5e6e6",
"A4 c #e0bfa6",
"B4 c #ebd8ca",
"C4 c #dde0e2",
"D4 c #c3ccd3",
"E4 c #96a9b7",
"F4 c #698499",
"G4 c #8ca0b0",
"H4 c #cbd3d7",
"I4 c #dcdcdc",
"J4 c #658095",
"K4 c #b8c2cb",
"L4 c #7c93a6",
"M4 c #70889e",
"N4 c #93a6b5",
"O4 c #b5c0ca",
"P4 c #e0e2e4",
"Q4 c #ede8e4",
"R4 c #e49860",
"S4 c #eda46a",
"T4 c #ede6e0",
"U4 c #eddfd4",
"V4 c #e9e2dc",
"W4 c #cfd6db",
"X4 c #b1bdc7",
"Y4 c #9aacba",
"Z4 c #95a8b7",
"a4 c #b6c1ca",
"b4 c #d9dde1",
"c4 c #e6e7e8",
"d4 c #dddddd",
"e4 c #688397",
"f4 c #e2e5e7",
"g4 c #c8d0d6",
"h4 c #cbd3d8",
"i4 c #e3e6e8",
"j4 c #edeeee",
"k4 c #f1ad7a",
"l4 c #e7680b",
"m4 c #ebbe97",
"n4 c #edceb5",
"o4 c #eba56c",
"p4 c #f0e0d5",
"q4 c #dce1e4",
"r4 c #e3e6e7",
"s4 c #e6e8e9",
"t4 c #ebeced",
"u4 c #dedede",
"v4 c #6b859a",
"w4 c #edd8c6",
"x4 c #e78333",
"y4 c #e46708",
"z4 c #ecbe97",
"05 c #efecea",
"15 c #eaa972",
"25 c #e89652",
"35 c #efe2d8",
"45 c #eeefef",
"55 c #e0e0e0",
"65 c #708a9f",
"75 c #edccb0",
"85 c #e57925",
"95 c #e4680a",
":5 c #e78536",
";5 c #eedbc8",
"A5 c #f0e6df",
"B5 c #e78d43",
"C5 c #e7934e",
"D5 c #f0e3da",
"E5 c #e1e1e1",
"F5 c #738da1",
"G5 c #efd9c6",
"H5 c #e46a0d",
"I5 c #e99e5e",
"J5 c #f0e7e0",
"K5 c #eecdb1",
"L5 c #e5731b",
"M5 c #e99e5f",
"N5 c #f1ebe6",
"O5 c #e2e2e2",
"P5 c #758fa3",
"Q5 c #ecba8e",
"R5 c #eecbab",
"S5 c #f2f1f1",
"T5 c #eaa468",
"U5 c #e56b0e",
"V5 c #eec4a0",
"W5 c #f1f1f1",
"X5 c #e3e3e3",
"Y5 c #7891a6",
"Z5 c #f2ece7",
"a5 c #e99957",
"b5 c #e56d12",
"c5 c #e56c10",
"d5 c #e9a061",
"e5 c #f2e9e3",
"f5 c #efccab",
"g5 c #e6761e",
"h5 c #e77f2e",
"i5 c #f2e9e2",
"j5 c #f2f2f2",
"k5 c #e4e4e4",
"l5 c #7b94a8",
"m5 c #f0d2b7",
"n5 c #e77e2b",
"o5 c #e56d13",
"p5 c #ea9550",
"q5 c #f3e9de",
"r5 c #f1d7c0",
"s5 c #e77f2d",
"t5 c #f0d5bb",
"u5 c #7d96aa",
"v5 c #e9934c",
"w5 c #e56f15",
"x5 c #ea9855",
"y5 c #f3eae1",
"z5 c #efcaaa",
"06 c #e67b26",
"16 c #e57117",
"26 c #efc8a5",
"36 c #e5e5e5",
"46 c #8098ac",
"56 c #f4e5db",
"66 c #e7883a",
"76 c #e57017",
"86 c #eeb381",
"96 c #f5f0ec",
":6 c #f5f1f0",
";6 c #eba163",
"A6 c #e57219",
"B6 c #e6761f",
"C6 c #f2d9c3",
"D6 c #e6e6e6",
"E6 c #829baf",
"F6 c #f6f1ed",
"G6 c #eca468",
"H6 c #e88a3f",
"I6 c #f3e5d7",
"J6 c #f0c59f",
"K6 c #e67923",
"L6 c #e67219",
"M6 c #eb9f60",
"N6 c #f6f1ec",
"O6 c #e7e7e7",
"P6 c #859db1",
"Q6 c #f6efe9",
"R6 c #eeb07b",
"S6 c #e98b3f",
"T6 c #f3d9c1",
"U6 c #f3d0b3",
"V6 c #e88435",
"W6 c #e6731c",
"X6 c #e98e45",
"Y6 c #f4e4d5",
"Z6 c #e8e8e8",
"a6 c #879fb3",
"b6 c #f4e1cf",
"c6 c #eb9e5f",
"d6 c #eb9956",
"e6 c #f5e3d2",
"f6 c #f1c59e",
"g6 c #e88030",
"h6 c #e7751f",
"i6 c #ea8f45",
"j6 c #f4e0cd",
"k6 c #e9e9e9",
"l6 c #8aa1b5",
"m6 c #f8f3ed",
"n6 c #f1c39b",
"o6 c #eb9049",
"p6 c #eb934b",
"q6 c #f1bf94",
"r6 c #f8f4ef",
"s6 c #f0b685",
"t6 c #e87c2a",
"u6 c #e77823",
"v6 c #ec9c5a",
"w6 c #8ca3b7",
"x6 c #f6e2cf",
"y6 c #f0ba8a",
"z6 c #eeae79",
"07 c #f1bf95",
"17 c #f0b786",
"27 c #e77926",
"37 c #e77a28",
"47 c #f0b37f",
"57 c #f8ede4",
"67 c #eaeaea",
"77 c #8ea5b9",
"87 c #faf9f9",
"97 c #f7e9dd",
":7 c #f5d5bb",
";7 c #f8ede3",
"A7 c #f2c399",
"B7 c #e87d2b",
"C7 c #e88334",
"D7 c #f2c59e",
"E7 c #faf7f5",
"F7 c #f9f9f9",
"G7 c #ebebeb",
"H7 c #91a7bb",
"I7 c #f6dbc2",
"J7 c #e9863a",
"K7 c #e98437",
"L7 c #f3cba9",
"M7 c #ececec",
"N7 c #93a9bd",
"O7 c #fbf2e9",
"P7 c #eea365",
"Q7 c #e88031",
"R7 c #f4c9a5",
"S7 c #95abbf",
"T7 c #f6d3b4",
"U7 c #e98436",
"V7 c #f0b27e",
"W7 c #fcf9f8",
"X7 c #97adc0",
"Y7 c #f4bf91",
"Z7 c #eb904a",
"a7 c #f8dec8",
"b7 c #fcfcfc",
"c7 c #99afc2",
"d7 c #f1b37e",
"e7 c #f0ac74",
"f7 c #fdf7f3",
"g7 c #9ab0c4",
"h7 c #ededed",
"i7 c #fbfbfb",
"j7 c #f6d2b2",
"k7 c #f6d3b5",
"l7 c #fefdfd",
"m7 c #fafafa",
"n7 c #e1e3e6",
"o7 c #9cb2c5",
"p7 c #9fb4c5",
"q7 c #ccd3db",
"r7 c #fefefe",
"s7 c #f5f5f5",
"t7 c #bec9d3",
"u7 c #b2c1ce",
"v7 c #eeeeee",
"w7 c #ffffff",
"x7 c #fdfdfd",
"y7 c #f6f6f6",
"z7 c #dadee2",
"08 c #9fb5c8",
"18 c #a2b6ca",
"28 c #b3c1cf",
"38 c #cdd5dc",
"48 c #f0f0f0",
"58 c #f4f4f4",
"68 c #f8f8f8",
"78 c #f7f7f7",
"88 c #f3f3f3",
"98 c #efefef",
":8 c #c9d2d9",
";8 c #a1b6c9",
"A8 c #a2b7ca",
"B8 c #a1b8ca",
"      B8A8A8A8A8A8A8A8A8A8A8A8A8A8A8A8A8A8A8A8A8A8A8A8A8A8A8A8A8A8A8A8A8A8A8A8A8A8A8A8A8A8      ",
"    ;8:898887868686868686868686868686868686868686868686868686868686868686868686868785848382818  ",
"  08z7y7x7w7w7w7w7w7w7w7w7w7w7w7w7w7w7w7w7w7w7w7w7w7w7w7w7w7w7w7w7w7w7w7w7w7w7w7w7w7w7x768v7u7  ",
"  t7s7x7w7w7w7w7w7w7w7w7w7w7w7w7w7w7w7w7w7w7w7w7w7w7w7w7w7w7w7w7w7w7w7w7w7w7w7w7w7w7w7w7r768q7p7",
"o7n7m7r7r7r7r7r7r7r7r7r7r7r7r7r7r7r7r7r7r7r7r7r7r7r7l7k7j7r7r7r7r7r7r7r7r7r7r7r7r7r7r7r7r7i7h7o7",
"g7v7x7r7r7r7r7r7r7r7r7r7r7r7r7r7r7r7r7r7r7r7r7r7r7r7f7e7d7r7r7r7r7r7r7r7r7r7r7r7r7r7r7r7r7x798g7",
"c7v7b7x7x7x7x7x7x7x7x7x7x7x7x7x7x7x7x7x7x7x7x7x7x7x7a7Z7Y7x7x7x7x7x7x7x7x7x7x7x7x7x7x7x7x7b7v7c7",
"X7h7i7b7b7b7b7b7b7b7b7b7b7b7b7b7b7b7b7b7b7b7b7b7b7W7V7U7T7b7b7b7b7b7b7b7b7b7b7b7b7b7b7b7b7i7h7X7",
"S7h7i7b7b7b7b7b7b7b7b7b7b7b7b7b7b7b7b7b7b7b7b7b7b7R7Q7P7O7b7b7b7b7b7b7b7b7b7b7b7b7b7b7b7b7i7h7S7",
"N7M7m7i7i7i7i7i7i7i7i7i7i7i7i7i7i7i7i7i7i7i7i7i7L7K7J7I7i7i7i7i7i7i7i7i7i7i7i7i7i7i7i7i7i7m7M7N7",
"H7G7F7m7m7m7m7m7m7m7m7m7m7m7m7m7m7m7m7m7m7m7E7D7C7B7A7m7m7m7;7:79787m7m7m7m7m7m7m7m7m7m7m7F7G7H7",
"776768F7F7F7F7F7F7F7F7F7F7F7F7F7F7F7F7F7F75747372717F7F79707z6y6x6F7F7F7F7F7F7F7F7F7F7F7F7686777",
"w66768F7F7F7F7F7F7F7F7F7F7F7F7F7F7F7F7F7x6v6u6t6s6F7r6q6p6o6n6m6F7F7F7F7F7F7F7F7F7F7F7F7F76867w6",
"l6k67868686868686868686868686868686868j6i6h6g6f668e6d6h6c6b668686868686868686868686868686878k6l6",
"a6Z6y7787878787878787878787878787878Y6X6W6V6U678T6S6W6R6Q678787878787878787878787878787878y7Z6a6",
"P6O6s7y7y7y7y7y7y7y7y7y7y7y7y7y7y7N6M6L6K6J6y7I6H6L6G6F6y7y7y7y7y7y7y7y7y7y7y7y7y7y7y7y7y7s7O6P6",
"E6D658s7s7s7s7s7s7s7s7s7s7s7s7s7s7C6B6A6;6:69686766656s7s7s7s7s7s7s7s7s7s7s7s7s7s7s7s7s7s758D6E6",
"4636885858585858585858585858585858261606z558y5x5w5v558585858585858585858585858585858585858883646",
"u536885858585858585858585858585858t5w5s5r558q5p5o5n5m55858585858585858585858585858585858588836u5",
"l5k5j58888888888888888888888888888i5h5g5f588e5d5c5b5a5Z58888888888888888888888888888888888j5k5l5",
"Y5X5W5j5j5j5j5j5j5j5j5j5j5j5j5j5j5j5V5U5T5j5S5R5o5U576Q5j5j5j5j5j5j5j5j5j5j5j5j5j5j5j5j5j5W5X5Y5",
"P5O548W5W5W5W5W5W5W5W5W5W5W5W5W5W5W5N5M5L5K5W5J5I5H5H566G5W5W5W5W5W5W5W5W5W5W5W5W5W5W5W5W548O5P5",
"F5E59848484848484848484848484848484848D5C5B5A548;5:59585754848484848484848484848484848484898E5F5",
"6555v798989898989898989898989898989845983525150598z4y4x4w498989898984598989898989898989898v75565",
"v4u4M7h7h7h7v7v7v7v7v7v7v7v7t4s4r4z7q4v7v7p4o4n4v7m4l4k4v7v7v7v7j4i4h4g4f4h7v7v7v7v7v7h7h7M7u4v4",
"e4d4G7G7G7G7h7h7h7h7h7h7c4b4a4Z4Y4X4W4h7h7h7V4U4T4S4R4Q4h7h7h7h7P4O4N4M4L4K4r4h7h7h7h7G7G7G7d4e4",
"J4I467676767G7G7G7G7G7H4G4F4v4E4D4C4G7G7G7G7G7G7B4A4;4:494847464544434241404z3G7G7G7G7676767I4J4",
"y3x3k6k6k6k667676767k6w3v3u3t3s3O4r3a4q3q3q3p3o3n3m3l3k3j3i3h3g3f3676767e3d3c367676767k6k6k6x3y3",
"b3a3Z6Z6Z6Z6k6k6k6k6k6Z3Y3s3X3W3V3U3U3U3U3U3T3U3S3R3Q3P3z3O3N3M3k6k6k6k6L3K3J3k6k6k6k6Z6Z6Z6a3b3",
"I3H3O6O6O6O6Z6Z6Z6Z6Z6Z6Z6Z6Z6G3F3E3D3D3E3E3E3C3B3A3;3Z6Z6Z6Z6Z6Z6Z6Z6:3938373Z6Z6Z6Z6O6O6O6H3I3",
"6353D6D6D6D6O6O6O6O6O6O6O6O6433323O6O6O6O6O6O6O6O6O6O6O613:3O6O6O6O603z2y2x2w2O6O6O6O6D6D6D65363",
"v253D6D6D6D6D6D6D6D6D6D6D6D6u2y2t2s2r2q2p2o2n2n2m2l2k2j2i2u2h2D6g2f2e2v3d2c2D6D6D6D6D6D6D6D653v2",
"b2a236363636D6D6D6D6D6D6D6D6Z2d2Y2y2y2X2W2V2V2U2J3y2y2y2T2S2f2R2Q2j2P2O2;4D6D6D6D6D6D6363636a2b2",
"N2M2k5k5k5k5363636363636363636L2K2J2I2d2H2G2F2H2E2D2O2o2C2B2A2;2:292823636363636363636k5k5k5M2N2",
"72M2k5k5k5k5k5k5k5k5k5k5k5k5k5k56252k5k5k5k5X542k5k5k5k5k5k5k532k5k5k5k5k5k5k5k5k5k5k5k5k5k5M272",
"22M2k5k5k5k5k5k5k5k5k5k5k5k5k51202z1y1:2x1w1;2v1u1o2t1s1r1k5k5k5k5k5k5k5k5k5k5k5k5k5k5k5k5k5M222",
"q1M2k5k5k5k5k5k5k5k5k5k5k5k5k5p1o1n1m1l1U3k1j1i1h1l1J3n1U3g1X5k5k5k5k5k5k5k5k5k5k5k5k5k5k5k5M2q1",
"f153D6D6D6D6k5k5k5k5k5r1e1d1I2c1b1e1a1Z1Y1Y1Y1Y1Y1X1W1V1U1p1X5k5k5k5k5X5T1k5k5k5k5k5k5D6D6D653f1",
"S1H3O6O6O6O6D6D6R1Q1P1O1N4N1M1G3D6G3L1K1J1I1H1I1N1G1w1h2g2D6D6D6D6D6D6D6F1p203D6D6D6D6O6O6O6H3S1",
"E1a3Z6Z6Z6Z6O6O6D1C1B1A1;1O6O6O6O6O6O6O6O6O6O6O6O6O6O6O6O6O6O6:1g291817161G1D6O6O6O6O6Z6Z6Z6a3E1",
"51x3k6k6k6k6Z6Z64131211101z0y0x0w0v0u0t0t0t0t0t0s0r0q0p0o0n0m0l06101k0j0i0h0Z6Z6Z6Z6Z6k6k6k6x351",
"g0d4G7G7G7G7k6k6M3f0e0d0c0b0a0Z0Z0Z0Y0k0k0k0k0k0X0k0W0Z0Z0V0X0U0T0S0q3R0Z6k6k6k6k6k6k6G7G7G7d4g0",
"Q0u4h7h7h7h7G7G7G7P0O0N0M0L0K0J0I0H0G0X0X0X0X0X0X0X0F0E0D0C0B0A0;0:090G7G7G7G7G7G7G7G7h7h7h7u4Q0",
"8070h7484848h7h7h7h7h7h7h7h7h7h7h7h7h7h7h7h7h7h7h7h7h7h7h7h7h7h7h7h7h7h7h7h7h7h7h7h7h74848h77080",
"  606748W5W548484848484848484848484848484848484848484848484848484848484848484848484848W5486760  ",
"  5040h748W5W5W5W5W5W5W5W5W5W5W5W5W5W5W5W5W5W5W5W5W5W5W5W5W5W5W5W5W5W5W5W5W5W5W5W5W5W548h74050  ",
"    302036k6k6k6k6k6k6k6k6k6k6k6k6k6k6k6k6k6k6k6k6k6k6k6k6k6k6k6k6k6k6k6k6k6k6k6k6k6k6D62030    ",
"      100000000000000000000000000000000000000000000000000000000000000000000000000000000010      "};
