/* XPM */
static char *image[] = {
"48 48 164 2",
"   c None",
"00 c #000000",
"10 c #6d6d6d",
"20 c #5c5c5c",
"30 c #555555",
"40 c #606060",
"50 c #626262",
"60 c #717171",
"70 c #656565",
"80 c #666666",
"90 c #929292",
":0 c #939393",
";0 c #959595",
"A0 c #6c6c6c",
"B0 c #797979",
"C0 c #363636",
"D0 c #3c3c3c",
"E0 c #878787",
"F0 c #989898",
"G0 c #7b7b7b",
"H0 c #707070",
"I0 c #7d7d7d",
"J0 c #6e6e6e",
"K0 c #737373",
"L0 c #9b9b9b",
"M0 c #616161",
"N0 c #747474",
"O0 c #9d9d9d",
"P0 c #545454",
"Q0 c #777777",
"R0 c #9f9f9f",
"S0 c #696969",
"T0 c #454545",
"U0 c #676767",
"V0 c #7a7a7a",
"W0 c #7c7c7c",
"X0 c #a1a1a1",
"Y0 c #7f7f7f",
"Z0 c #a4a4a4",
"a0 c #828282",
"b0 c #8b8b8b",
"c0 c #a6a6a6",
"d0 c #848484",
"e0 c #868686",
"f0 c #8e8e8e",
"g0 c #888888",
"h0 c #919191",
"i0 c #aaaaaa",
"j0 c #8c8c8c",
"k0 c #acacac",
"l0 c #b4b4b4",
"m0 c #b6b6b6",
"n0 c #b9b9b9",
"o0 c #8f8f8f",
"p0 c #969696",
"q0 c #afafaf",
"r0 c #b1b1b1",
"s0 c #909090",
"t0 c #979797",
"u0 c #f4f4f4",
"v0 c #f3f3f3",
"w0 c #f1f1f1",
"x0 c #949494",
"y0 c #999999",
"z0 c #a8a8a8",
"01 c #9c9c9c",
"11 c #e8bb74",
"21 c #191919",
"31 c #9a9a9a",
"41 c #9e9e9e",
"51 c #e6a663",
"61 c #f0c178",
"71 c #e6a864",
"81 c #a0a0a0",
"91 c #d07137",
":1 c #c75a28",
";1 c #d07037",
"A1 c #a2a2a2",
"B1 c #f2f2f2",
"C1 c #e28e2d",
"D1 c #a3a3a3",
"E1 c #b3803f",
"F1 c #e8a34b",
"G1 c #a5a5a5",
"H1 c #d87e43",
"I1 c #edb76a",
"J1 c #b99056",
"K1 c #a7a7a7",
"L1 c #984020",
"M1 c #c44d22",
"N1 c #c34c22",
"O1 c #a53e14",
"P1 c #8c3308",
"Q1 c #702d0d",
"R1 c #a9a9a9",
"S1 c #4e1c04",
"T1 c #411c0a",
"U1 c #ababab",
"V1 c #404040",
"W1 c #1a1a1a",
"X1 c #3e3e3e",
"Y1 c #adadad",
"Z1 c #aeaeae",
"a1 c #b0b0b0",
"b1 c #b7b7b7",
"c1 c #b5b5b5",
"d1 c #b3b3b3",
"e1 c #b2b2b2",
"f1 c #eeeeee",
"g1 c #f0f0f0",
"h1 c #efefef",
"i1 c #ededed",
"j1 c #ececec",
"k1 c #b8b8b8",
"l1 c #bababa",
"m1 c #bcbcbc",
"n1 c #e0e0e0",
"o1 c #dddddd",
"p1 c #dbdbdb",
"q1 c #bbbbbb",
"r1 c #bebebe",
"s1 c #c0c0c0",
"t1 c #c3c3c3",
"u1 c #c5c5c5",
"v1 c #c8c8c8",
"w1 c #cacaca",
"x1 c #cdcdcd",
"y1 c #cfcfcf",
"z1 c #d1d1d1",
"02 c #d4d4d4",
"12 c #d6d6d6",
"22 c #d9d9d9",
"32 c #e5e5e5",
"42 c #e2e2e2",
"52 c #bdbdbd",
"62 c #bfbfbf",
"72 c #c1c1c1",
"82 c #c2c2c2",
"92 c #c4c4c4",
":2 c #c6c6c6",
";2 c #c7c7c7",
"A2 c #c9c9c9",
"B2 c #cbcbcb",
"C2 c #cccccc",
"D2 c #cecece",
"E2 c #d0d0d0",
"F2 c #d2d2d2",
"G2 c #d3d3d3",
"H2 c #d5d5d5",
"I2 c #d7d7d7",
"J2 c #d8d8d8",
"K2 c #dadada",
"L2 c #dcdcdc",
"M2 c #dedede",
"N2 c #e7e7e7",
"O2 c #ebebeb",
"P2 c #eaeaea",
"Q2 c #e9e9e9",
"R2 c #e8e8e8",
"S2 c #e6e6e6",
"T2 c #e4e4e4",
"U2 c #e3e3e3",
"V2 c #e1e1e1",
"W2 c #dfdfdf",
"                                                                                                ",
"                                                                                                ",
"          W2V2U2T2S2R2Q2P2O2O2P2Q2N2S2T2U2V2W2M2L2K2J2I2H2G2F2E2D2C2B2A2;2:29282726252          ",
"        L2M2W2V242U2T232S2S2S2S232T2U242V2W2M2L2K222I21202F2z1y1x1C2w1v1;2u1t182s1r152q1        ",
"        J2p1L2o1M2W2n1V2V2V2V2V2V2n1W2M2o1L2p122J2I2H202F2z1y1x1C2w1A2;2u19282726252m1l1        ",
"        12I2J222K2p1L2L2L2L2L2L2L2p1p1K222J2I2J2J2J2J2J2J2I212H2G2z1y1B2v192726252m1l1k1        ",
"      o1n1n1V2424242U2U2U2U2U2U2U2U242U2T232S2N2R2Q2P2j1i1h1g1f1O2Q2S2U2n1o1K2I202E2x1x1v1      ",
"      m1e1e1e1e1e1e1e1e1e1e1e1e1e1e1e1e1e1e1d1c1b1l152r1s1727272s1r152l1b1c1d1e1e1e1e1e1b1      ",
"      a1a1a1a1a1a1a1a1a1a1a1a1a1a1a1a1a1a1a1a1a1a1a1a1a1a1a1a1a1a1a1a1a1a1a1a1a1a1a1a1a1a1      ",
"      Z1Z1Z1Z1Z1Z1Z1Z1Z1Z1Z1Z1Z1Z1Z1Z1Z1Z1Z1Z1Z1Z1Z1Z1Z1Z1Z1Z1Z1Z1Z1Z1Z1Z1Z1Z1Z1Z1Z1Z1Z1Z1      ",
"      Y1Y1Y1X1W1W1W1W1W1W1W1W1W1W1W1W1W1W1W1W1W1W1W1W1W1W1W1W1W1W1W1W1W1W1W1W1W1W1V1Y1Y1Y1      ",
"      U1U1U1W1W1W1W1T1S1S1S1S1S1S1S1S1S1S1S1S1S1S1S1S1S1S1S1S1S1S1S1S1S1S1T1W1W1W1W1U1U1U1      ",
"      R1R1R1W1W1W1Q1P1P1P1P1P1P1P1P1P1P1P1P1P1P1P1P1P1P1P1P1O1N1M1M1M1M1M1M1M1L1W1W1R1R1R1      ",
"      K1K1K1W1J1I1I1I1I1I1I1I1I1I1H1M1M1M1M1M1M1M1M1M1M1M1M1M1M1M1M1M1M1M1M1M1M1W1W1K1K1K1      ",
"      G1G1G1W1F1F1F1F1F1F1F1F1F1F1F1F1F1F1F1F1F1F1F1F1F1F1F1F1F1F1F1F1F1F1F1F1F1E1W1G1G1G1      ",
"      D1D1D1W1C1C1B1B1B1B1B1B1B1B1B1B1B1B1B1B1B1B1B1B1B1B1B1B1B1B1B1B1B1B1B1B1C1C1W1D1D1D1      ",
"      A1A1A1W1;1:1:1:1:1:1:1:1:1:1:1:1:1:1:1:1:1:1:1:1:1:1:1:1:1:1:1:1:1:1:1:1:191W1A1A1A1      ",
"      818181W171616161616161616161616161616161616161616161616161616161616161616151W1818181      ",
"      414131211111111111111111111111111111111111111111111111111111111111111111111121314141      ",
"      0131z0C2F2F2F2F2F2F2F2F2F2F2F2F2F2G202H2I2J222K2K2K2K2K222J2I2H202G2F2F2F2F2C2K13101      ",
"      y0x0E2T2T2T2T2T2T2T2T2T2T2T232S2N2Q2P2j1i1h1g1w0v0u0v0w0g1h1i1j1P2Q2N2S232T2T2z1x0y0      ",
"      t0s0C2u1u1u1u1u1u1u162626262r1525252r1s172t192u1u1u192t172r1q1k1c1e1r0a1q0q0Z1q1s0t0      ",
"      p0o0u1u1u1u1u1u1u1u172r1r152m1m1q1l1l1n0k1k1b1m0m0c1l0l0d1e1e1r0a1a1q0Z1Z1Y1k0k0o0p0      ",
"      x0j0u1u1u1u1u1u1u1927252m1q1q1l1n0n0k1b1b1m0c1c1l0d1d1e1r0r0a1q0q0Z1Y1Y1k0U1U1i0j0x0      ",
"      h0g092929292t1t1828282m1l1l1n0k1k1b1m0m0c1l0l0d1e1e1r0a1a1q0Z1Z1Y1k0k0U1i0i0R1z0g0h0      ",
"      f0e09292t1828272s1s162q1n0k1b1b1m0c1c1l0d1d1e1r0r0a1q0q0Z1Y1Y1k0U1U1i0R1R1z0K1K1e0f0      ",
"      j0d0t1827272s16262r152m1b1m0m0c1l0l0d1e1e1r0a1a1q0Z1Z1Y1k0k0U1i0i0R1z0z0K1c0G1G1d0j0      ",
"      b0a072s1s162r1r152m1m1q1m0c1l0r0Z1Y1k0k0U1i0i0R1z0z0i0U1U1i0R1R1z0K1K1c0G1Z0Z0D1a0b0      ",
"      g0Y06262r15252m1q1q1l1n0b1d1m1G2I2I2I2I2I2I2I2I2I2I2F2m0R1z0z0K1c0G1G1Z0D1D1A1X0Y0g0      ",
"      e0W052m1q1q1l1n0n0k1b1b1b1k0z1y1y1y1y1y1y1y1y1y1y1y1y1E2A1K1c0G1Z0Z0D1A1A1X08181W0e0      ",
"      d0V0q1l1l1n0k1k1b1m0m0c1l0i0G2x1U0T0T0T0T0T0T0T0T0S0x1G241G1Z0D1D1A1X0X081R0R041V0d0      ",
"      a0Q0n0n0k1b1b1m0c1c1l0d1d1R1z1B2P0S2v0v0v0v0v0v032P0B2z1O0D1A1A1X08181R04141O001Q0a0      ",
"      Y0N0k1b1m0m0c1l0l0d1e1e1r0z0D2A2M0N2N2N2N2N2N2N2N2M0A2D2L0X0X081R0R041O0O001L0L0N0Y0      ",
"      Y0K0c1l0l0d1e1e1r0r0r0a1q0K1B2;2J0p1p1p1p1p1p1p1p1J0;2B2y081R04141O00101L03131y0K0Y0      ",
"      I0H0d1d1e1r0r0a1q0q0Z1Y1Y1G1;292G0t1y1y1y1y1y1y192G092;2F041O0O001L0L031y0y0F0t0H0I0      ",
"      G0J0e1r0a1a1q0Z1Z1Y1k0k0U1D19282E0D0C0C0C0C0C0C0D0E08292p00101L03131y0F0F0t0p0p0J0G0      ",
"      B0A0q0Z1Z1Y1k0k0U1i0i0R1z081s1s1Z0x0x0x0x0x0x0x0x0Z0s1s1x0L031y0y0F0t0t0p0;0;0x0A0B0      ",
"      Q0S0Y1Y1k0U1U1i0R1R1z0K1c0R0l1r1v1B2B2B2B2B2B2B2B2v1r1k1x0y0F0F0t0p0p0;0x0x0:090S0Q0      ",
"      N080k0U1i0i0R1z0K1K1c0G1G1D181n052525252525252525252k131t0t0t0p0;0;0x0:0:090h0h080N0      ",
"      K070R1z0z0K1c0G1G1Z0D1D1A1X0R0F0p0x0:09090h0s0s0o0f0s0;0p0p0;0x0x0:09090h0s0s0o070K0      ",
"      6050K1c0c0G1Z0Z0D1A1A1X08181R0414101L0L031y0y0F0t0t0p0;0;0x0:0:090h0h0s0o0o0f0f05060      ",
"      4030Z0Z0D1A1A1X08181R04141O00101L03131y0F0F0t0p0p0;0x0x0:09090h0s0s0o0f0f0f0f0f02010      ",
"          D1A1X0X081R0R041O0O001L0L031y0y0F0t0t0p0;0;0x0:0:090h0h0s0o0o0f0f0f0f0f0f0f0          ",
"          A18181R04141O00101L03131y0F0F0t0p0p0;0x0x0:09090h0s0s0o0f0f0f0f0f0f0f0f0f0o0          ",
"          L0G1G1G1G1G1G1c0c0c0K1K1c0K1K1K1z0z0z0z0K1G1Z0A1X08141O001L03131y0F0t0p0;0s0          ",
"                                    000000000000000000                                          ",
"                                                                                                ",
"                                                                                                "};
