/* XPM */
static char *image[] = {
"51 51 2 1",
"0 c #000000",
"1 c #ffffff",
"111111001111111111111111111111111111111111100111111",
"111111000011111111111111111111111111111110000111111",
"111111010100111111111111111111111111111001010111111",
"111111001010001111111000000000111111100010100111111",
"111111010101010110000000000000000011010101010111111",
"111111001010100000000000000000000000001010100111111",
"111111010101000000000000000000000000000101010111111",
"111111001010000000000000000000000000000010100111111",
"111111010100000000000000000000000000000001010111111",
"111111001000000000000000000000000000000000100111111",
"111111000000001101110000000000011110111000000111111",
"111111000000111000111000000000111100011100000111111",
"111111000001111000111100000001111100011110000111111",
"111111000011110000011110000001111000001111000111111",
"111110000011110000011110000011111000001111000011111",
"111110000111110000011111000011111000001111100011111",
"111100000111110000011111000011111000001111100001111",
"111100000111110000011111000011111000001111100001111",
"111000000111110000011111000011111000001111100000111",
"111000000111110000011111000011111000001111100000111",
"111000000111110000011111000011111000001111100000111",
"111000000011110000011110000001111000001111000000111",
"110000000001111000111100000001111100011111000000011",
"110000000001111000111000101000111100011110000000011",
"110000000000111101110000010100001110111000000000011",
"110000000000000000000010101010000000000000000000011",
"110000000000000000000101010101000000000000000000011",
"110000001111111111111111111111111111111111110000011",
"110000001111111111111010101010111111111111110000011",
"110000001101111111111010101010111111111110110000011",
"110000001110111111101101010101101111111101110000011",
"111000001111011110001110000011110111111001110000111",
"111000000111100000111111111110111000000111100000111",
"111000000101111111100111111111011111111001100000111",
"111000000110011110011111111111100001110011000000111",
"111100000011100001111111111111111100000110000001111",
"111100000011111000011111111111111000011110000001111",
"111110000001111100000111111111000000111100000011111",
"111110000000111110000000000000000001111000000011111",
"111111000000111111000000000000000111111000000111111",
"111111100000011111100000000000001111110000001111111",
"111111100000000111111000000000111111000000001111111",
"111111110000000011111110000011111110000000011111111",
"111111111000000000111111111111111000000000111111111",
"111111111100000000000111111111000000000001111111111",
"111111111111000000000000000000000000000111111111111",
"111111111111100000000000000000000000001111111111111",
"111111111111111000000000000000000000111111111111111",
"111111111111111110000000000000000011111111111111111",
"111111111111111111111000000000111111111111111111111",
"111111111111111111111111111111111111111111111111111"};
