/* XPM */
static char *image[] = {
"48 48 738 2",
"   c None",
"00 c #000000",
"10 c #1b1b1a",
"20 c #252623",
"30 c #3d3f3d",
"40 c #d3d3d3",
"50 c #3f413e",
"60 c #e6e7e6",
"70 c #e8e9e8",
"80 c #e7e8e8",
"90 c #e7e8e7",
":0 c #e6e7e7",
";0 c #40423f",
"A0 c #e2e2e2",
"B0 c #424441",
"C0 c #414340",
"D0 c #c2c2c2",
"E0 c #44504c",
"F0 c #3f4a46",
"G0 c #363f3c",
"H0 c #434542",
"I0 c #434541",
"J0 c #c3c3c3",
"K0 c #38403d",
"L0 c #56615e",
"M0 c #55615e",
"N0 c #535f5b",
"O0 c #4e5955",
"P0 c #414845",
"Q0 c #39403d",
"R0 c #444642",
"S0 c #292f2d",
"T0 c #2e3633",
"U0 c #313936",
"V0 c #36403c",
"W0 c #3e4946",
"X0 c #485550",
"Y0 c #4d5b56",
"Z0 c #4c5955",
"a0 c #485551",
"b0 c #444f4b",
"c0 c #414c49",
"d0 c #3f4946",
"e0 c #3c4643",
"f0 c #394340",
"g0 c #37403d",
"h0 c #313937",
"i0 c #2e3634",
"j0 c #29302d",
"k0 c #454743",
"l0 c #c3c4c3",
"m0 c #373d3c",
"n0 c #4d5653",
"o0 c #596560",
"p0 c #5c6965",
"q0 c #5d6965",
"r0 c #5b6863",
"s0 c #545f5c",
"t0 c #4f5a56",
"u0 c #4a5350",
"v0 c #47504e",
"w0 c #474945",
"x0 c #464844",
"y0 c #2a302e",
"z0 c #434e4b",
"01 c #4b5854",
"11 c #53625d",
"21 c #55645f",
"31 c #54625d",
"41 c #4e5c57",
"51 c #4c5954",
"61 c #495551",
"71 c #434f4b",
"81 c #404b48",
"91 c #3d4845",
":1 c #323b38",
";1 c #2d3432",
"A1 c #484a46",
"B1 c #474946",
"C1 c #c4c5c4",
"D1 c #383e3c",
"E1 c #454e4b",
"F1 c #57635f",
"G1 c #5d6a65",
"H1 c #606e6a",
"I1 c #5f6c68",
"J1 c #5d6a66",
"K1 c #58645f",
"L1 c #454f4b",
"M1 c #3d4542",
"N1 c #363c3a",
"O1 c #494b48",
"P1 c #494b47",
"Q1 c #292f2e",
"R1 c #343e3b",
"S1 c #424e4a",
"T1 c #52605b",
"U1 c #515f5a",
"V1 c #4f5d58",
"W1 c #4d5a56",
"X1 c #4a5753",
"Y1 c #45514d",
"Z1 c #434e4a",
"a1 c #404b47",
"b1 c #3d4844",
"c1 c #37413e",
"d1 c #2f3734",
"e1 c #29312e",
"f1 c #4a4c48",
"g1 c #c6c6c5",
"h1 c #373d3b",
"i1 c #39413e",
"j1 c #3c4341",
"k1 c #3f4644",
"l1 c #434d4a",
"m1 c #505b57",
"n1 c #54605d",
"o1 c #56625e",
"p1 c #586460",
"q1 c #596661",
"r1 c #5b6763",
"s1 c #5a6762",
"t1 c #596561",
"u1 c #57625e",
"v1 c #55605d",
"w1 c #525e5a",
"x1 c #505b58",
"y1 c #4e5855",
"z1 c #4c5552",
"02 c #495250",
"12 c #3c4342",
"22 c #c5c5c5",
"32 c #4b4d49",
"42 c #c6c6c6",
"52 c #303835",
"62 c #333b38",
"72 c #353e3b",
"82 c #3a4441",
"92 c #3f4a47",
":2 c #45504d",
";2 c #47534f",
"A2 c #4b5753",
"B2 c #4d5955",
"C2 c #505c57",
"D2 c #505d59",
"E2 c #515e59",
"F2 c #4a5752",
"G2 c #485450",
"H2 c #46524e",
"I2 c #46504d",
"J2 c #3e4845",
"K2 c #38423e",
"L2 c #353f3b",
"M2 c #303836",
"N2 c #2b3230",
"O2 c #4c4e4a",
"P2 c #373e3c",
"Q2 c #505a56",
"R2 c #535e5b",
"S2 c #56605e",
"T2 c #59635f",
"U2 c #5b6662",
"V2 c #5d6763",
"W2 c #5e6966",
"X2 c #5b6561",
"Y2 c #515d59",
"Z2 c #505c58",
"a2 c #535d5b",
"b2 c #545e5c",
"c2 c #535d5a",
"d2 c #48514f",
"e2 c #464f4c",
"f2 c #434d49",
"g2 c #3f4744",
"h2 c #3a423f",
"i2 c #373f3c",
"j2 c #bdbdbd",
"k2 c #4e504c",
"l2 c #4d4f4b",
"m2 c #c7c7c6",
"n2 c #c1c1c1",
"o2 c #282f2c",
"p2 c #2a322f",
"q2 c #2f3735",
"r2 c #323a37",
"s2 c #38423f",
"t2 c #3d4744",
"u2 c #424c48",
"v2 c #45504c",
"w2 c #495450",
"x2 c #4d5753",
"y2 c #4f5956",
"z2 c #525c58",
"03 c #545e5a",
"13 c #555f5b",
"23 c #47524e",
"33 c #424d49",
"43 c #414c48",
"53 c #4a5450",
"63 c #4b5551",
"73 c #4b5451",
"83 c #48514e",
"93 c #39423f",
":3 c #36403d",
";3 c #323a38",
"A3 c #2b322f",
"B3 c #252c2a",
"C3 c #b9b9b9",
"D3 c #4f514d",
"E3 c #4f514c",
"F3 c #c7c7c7",
"G3 c #bebebe",
"H3 c #333836",
"I3 c #343b38",
"J3 c #454c49",
"K3 c #49514f",
"L3 c #4d5552",
"M3 c #505956",
"N3 c #58605e",
"O3 c #5a6360",
"P3 c #5e6664",
"Q3 c #5f6965",
"R3 c #5e6763",
"S3 c #4c5652",
"T3 c #4b5552",
"U3 c #4d5754",
"V3 c #59615e",
"W3 c #535c58",
"X3 c #434c49",
"Y3 c #424a47",
"Z3 c #404845",
"a3 c #3b4241",
"b3 c #343b39",
"c3 c #303634",
"d3 c #50524d",
"e3 c #c8c8c7",
"f3 c #bababa",
"g3 c #262d2b",
"h3 c #2a312e",
"i3 c #2f3634",
"j3 c #343c39",
"k3 c #3e4644",
"l3 c #424b48",
"m3 c #474f4d",
"n3 c #4a5351",
"o3 c #4f5754",
"p3 c #525b58",
"q3 c #545d5a",
"r3 c #575f5c",
"s3 c #58615e",
"t3 c #454e4c",
"u3 c #3b4542",
"v3 c #3b4541",
"w3 c #4e5754",
"x3 c #4f5855",
"y3 c #444c4a",
"z3 c #333c39",
"04 c #313a37",
"14 c #2f3835",
"24 c #2d3533",
"34 c #2b3330",
"44 c #29302e",
"54 c #272d2b",
"64 c #242b28",
"74 c #51534e",
"84 c #c8c8c8",
"94 c #b8b8b8",
":4 c #2f3432",
";4 c #343a38",
"A4 c #3a413f",
"B4 c #404643",
"C4 c #444a48",
"D4 c #494f4d",
"E4 c #4d5352",
"F4 c #555c5a",
"G4 c #5c6360",
"H4 c #5e6764",
"I4 c #616a67",
"J4 c #646b69",
"K4 c #616967",
"L4 c #454f4c",
"M4 c #444e4b",
"N4 c #444d4a",
"O4 c #575f5e",
"P4 c #5c6461",
"Q4 c #5d6462",
"R4 c #4d5351",
"S4 c #3e4643",
"T4 c #3d4442",
"U4 c #353b39",
"V4 c #52544f",
"W4 c #c9c9c8",
"X4 c #b5b5b5",
"Y4 c #232826",
"Z4 c #282e2c",
"a4 c #343937",
"b4 c #393f3d",
"c4 c #3e4442",
"d4 c #424947",
"e4 c #474e4c",
"f4 c #4c5250",
"g4 c #505654",
"h4 c #565e5b",
"i4 c #59605e",
"j4 c #5b6260",
"k4 c #464e4b",
"l4 c #343d3a",
"m4 c #38413e",
"n4 c #515856",
"o4 c #525a57",
"p4 c #535a58",
"q4 c #555b59",
"r4 c #39403e",
"s4 c #2d3532",
"t4 c #2c3331",
"u4 c #2a312f",
"v4 c #282f2d",
"w4 c #262d2a",
"x4 c #242a28",
"y4 c #222826",
"z4 c #202523",
"05 c #1e2321",
"15 c #545651",
"25 c #535550",
"35 c #b2b2b2",
"45 c #2c312f",
"55 c #323635",
"65 c #3e4242",
"75 c #424846",
"85 c #474d4b",
"95 c #515755",
":5 c #5d6360",
";5 c #636968",
"A5 c #676c6b",
"B5 c #666c6a",
"C5 c #404744",
"D5 c #4d5451",
"E5 c #5f6564",
"F5 c #606765",
"G5 c #616866",
"H5 c #3e4542",
"I5 c #383f3d",
"J5 c #353c39",
"K5 c #343a37",
"L5 c #323735",
"M5 c #2e3432",
"N5 c #282c2a",
"O5 c #555752",
"P5 c #545552",
"Q5 c #c9c9c9",
"R5 c #afafaf",
"S5 c #1f2321",
"T5 c #313634",
"U5 c #3c4140",
"V5 c #424746",
"W5 c #464c4a",
"X5 c #4b504f",
"Y5 c #505553",
"Z5 c #545958",
"a5 c #5b615f",
"b5 c #5e6462",
"c5 c #464d4b",
"d5 c #2c3431",
"e5 c #4b514f",
"f5 c #565c5a",
"g5 c #595f5d",
"h5 c #333a37",
"i5 c #333937",
"j5 c #313836",
"k5 c #2f3533",
"l5 c #202624",
"m5 c #1f2422",
"n5 c #1b1f1e",
"o5 c #565753",
"p5 c #acacac",
"q5 c #2e3231",
"r5 c #3a3e3d",
"s5 c #404342",
"t5 c #454948",
"u5 c #4b4f4e",
"v5 c #4f5351",
"w5 c #545957",
"x5 c #585d5c",
"y5 c #5e6260",
"z5 c #616564",
"06 c #646968",
"16 c #686c6c",
"26 c #6a6e6c",
"36 c #363d3b",
"46 c #373e3b",
"56 c #3b4240",
"66 c #5e6361",
"76 c #616664",
"86 c #626866",
"96 c #656a69",
":6 c #818382",
";6 c #d9dada",
"A6 c #dbdbdb",
"B6 c #dadbdb",
"C6 c #cbcccc",
"D6 c #2f3433",
"E6 c #232726",
"F6 c #585a55",
"G6 c #565854",
"H6 c #cacaca",
"I6 c #aaaaaa",
"J6 c #131616",
"K6 c #1f2322",
"L6 c #2d3030",
"M6 c #333735",
"N6 c #393d3b",
"O6 c #3f4341",
"P6 c #444847",
"Q6 c #494d4c",
"R6 c #4e5252",
"S6 c #535857",
"T6 c #606463",
"U6 c #494e4c",
"V6 c #242b29",
"W6 c #252b29",
"X6 c #3a3f3d",
"Y6 c #535957",
"Z6 c #575b5a",
"a6 c #595e5c",
"b6 c #5c605f",
"c6 c #4d5250",
"d6 c #2c3230",
"e6 c #2c3130",
"f6 c #2b302e",
"g6 c #292d2c",
"h6 c #272b2a",
"i6 c #171b1a",
"j6 c #131716",
"k6 c #121616",
"l6 c #a0a1a1",
"m6 c #595b56",
"n6 c #575955",
"o6 c #161919",
"p6 c #2e3130",
"q6 c #343736",
"r6 c #3b3e3d",
"s6 c #414342",
"t6 c #474a49",
"u6 c #4d504e",
"v6 c #515554",
"w6 c #565a59",
"x6 c #5b5e5e",
"y6 c #646967",
"z6 c #6c6f6e",
"07 c #383d3b",
"17 c #303434",
"27 c #303534",
"37 c #525756",
"47 c #5f6362",
"57 c #626765",
"67 c #666969",
"77 c #686c6b",
"87 c #4d5150",
"97 c #2d3230",
":7 c #2b302f",
";7 c #2a2f2e",
"A7 c #292e2c",
"B7 c #262a29",
"C7 c #252827",
"D7 c #9d9d9d",
"E7 c #5a5c57",
"F7 c #585a56",
"G7 c #cbcbcb",
"H7 c #2d302f",
"I7 c #333635",
"J7 c #393b3b",
"K7 c #3f4242",
"L7 c #454947",
"M7 c #4b4e4d",
"N7 c #555857",
"O7 c #5a5e5d",
"P7 c #606262",
"Q7 c #4c504e",
"R7 c #1d2220",
"S7 c #1d2221",
"T7 c #222726",
"U7 c #505453",
"V7 c #555957",
"W7 c #585c5b",
"X7 c #5b5f5d",
"Y7 c #5f6261",
"Z7 c #363a38",
"a7 c #1a1f1d",
"b7 c #191d1c",
"c7 c #181c1b",
"d7 c #171b19",
"e7 c #141816",
"f7 c #171a19",
"g7 c #2c2e2d",
"h7 c #9d9e9d",
"i7 c #9a9a9a",
"j7 c #595b57",
"k7 c #2d2e2e",
"l7 c #343636",
"m7 c #3a3c3b",
"n7 c #464948",
"o7 c #515453",
"p7 c #565959",
"q7 c #5c5e5e",
"r7 c #666968",
"s7 c #363b39",
"t7 c #282c2b",
"u7 c #282d2b",
"v7 c #292d2b",
"w7 c #3e4140",
"x7 c #606362",
"y7 c #646766",
"z7 c #686a69",
"08 c #6b6d6d",
"18 c #373b3a",
"28 c #262827",
"38 c #242726",
"48 c #232626",
"58 c #696b6b",
"68 c #6a6a6a",
"78 c #5c5e59",
"88 c #5b5d58",
"98 c #cccccc",
":8 c #1d1e1d",
";8 c #242625",
"A8 c #2c2c2c",
"B8 c #313332",
"C8 c #383a39",
"D8 c #3e403f",
"E8 c #444645",
"F8 c #4a4c4b",
"G8 c #4f5251",
"H8 c #5b5d5c",
"I8 c #4d504f",
"J8 c #151817",
"K8 c #151918",
"L8 c #161918",
"M8 c #161a18",
"N8 c #3e4240",
"O8 c #505352",
"P8 c #545656",
"Q8 c #585b5a",
"R8 c #5d5f5e",
"S8 c #606363",
"T8 c #1b1e1d",
"U8 c #131615",
"V8 c #121514",
"W8 c #111413",
"X8 c #101312",
"Y8 c #111312",
"Z8 c #565656",
"a8 c #333534",
"b8 c #5e605a",
"c8 c #5c5e58",
"d8 c #cdcdcd",
"e8 c #2b2b2b",
"f8 c #313232",
"g8 c #373938",
"h8 c #3e3e3e",
"i8 c #434544",
"j8 c #494a4a",
"k8 c #555655",
"l8 c #606261",
"m8 c #656766",
"n8 c #353837",
"o8 c #212423",
"p8 c #222524",
"q8 c #262928",
"r8 c #5a5d5c",
"s8 c #5e6060",
"t8 c #636564",
"u8 c #676968",
"v8 c #202322",
"w8 c #1f2221",
"x8 c #1f2120",
"y8 c #1e201f",
"z8 c #1d1f1e",
"09 c #1b1d1d",
"19 c #292a2a",
"29 c #c4c4c4",
"39 c #b6b6b6",
"49 c #272828",
"59 c #131313",
"69 c #949494",
"79 c #5f615b",
"89 c #5d5f59",
"99 c #cecece",
":9 c #a1a1a1",
";9 c #212121",
"A9 c #262727",
"B9 c #2e2e2e",
"C9 c #414242",
"D9 c #474847",
"E9 c #4d4e4e",
"F9 c #535554",
"G9 c #0e1010",
"H9 c #0e100f",
"I9 c #0e1110",
"J9 c #232625",
"K9 c #484a49",
"L9 c #4c4f4e",
"M9 c #515353",
"N9 c #5b5c5b",
"O9 c #4e5050",
"P9 c #0c0f0e",
"Q9 c #0c0e0d",
"R9 c #0b0d0c",
"S9 c #0a0c0b",
"T9 c #090b0a",
"U9 c #080909",
"V9 c #121312",
"W9 c #747575",
"X9 c #bfbfbf",
"Y9 c #050606",
"Z9 c #959595",
"a9 c #60625c",
"b9 c #5e615a",
"c9 c #a2a2a2",
"d9 c #151818",
"e9 c #2d2d2d",
"f9 c #333333",
"g9 c #393a39",
"h9 c #3e3f3f",
"i9 c #454545",
"j9 c #4c4c4c",
"k9 c #505150",
"l9 c #565857",
"m9 c #5d5d5d",
"n9 c #343535",
"o9 c #191b1a",
"p9 c #1a1b1b",
"q9 c #1a1c1b",
"r9 c #1a1c1c",
"s9 c #515252",
"t9 c #565757",
"u9 c #5a5c5c",
"v9 c #5e5f5f",
"w9 c #636464",
"x9 c #4c4e4d",
"y9 c #191a1a",
"z9 c #181a19",
"0: c #181918",
"1: c #171817",
"2: c #161616",
"3: c #141515",
"4: c #131414",
"5: c #181818",
"6: c #262626",
"7: c #0e0e0e",
"8: c #969696",
"9: c #cfcfcf",
":: c #61625d",
";: c #5f625b",
"A: c #151515",
"B: c #1b1b1b",
"C: c #202020",
"D: c #252525",
"E: c #292929",
"F: c #303030",
"G: c #3a3a3a",
"H: c #404040",
"I: c #3f3f3f",
"J: c #080808",
"K: c #070807",
"L: c #070808",
"M: c #090a09",
"N: c #353535",
"O: c #3a3b3b",
"P: c #3f4040",
"Q: c #444444",
"R: c #464847",
"S: c #4b4c4c",
"T: c #2b2c2b",
"U: c #060707",
"V: c #060606",
"W: c #050505",
"X: c #040404",
"Y: c #030303",
"Z: c #020202",
"a: c #010101",
"b: c #121515",
"c: c #979797",
"d: c #62635e",
"e: c #181b1b",
"f: c #171a1a",
"g: c #9b9b9b",
"h: c #d0d0d0",
"i: c #626460",
"j: c #a7a7a7",
"k: c #a5a5a5",
"l: c #a4a4a4",
"m: c #a3a3a3",
"n: c #62645d",
"o: c #d1d1d1",
"p: c #d7d7d7",
"q: c #d9d9d9",
"r: c #dcdcdc",
"s: c #dedede",
"t: c #e0e0e0",
"u: c #e3e3e3",
"v: c #e5e5e5",
"w: c #e7e7e7",
"x: c #e9e9e9",
"y: c #eeeeee",
"z: c #f0f0f0",
"0; c #f2f2f2",
"1; c #f4f4f4",
"2; c #f6f6f6",
"3; c #f8f8f8",
"4; c #fbfbfb",
"5; c #fafafa",
"6; c #f9f9f9",
"7; c #f7f7f7",
"8; c #f5f5f5",
"9; c #f3f3f3",
":; c #f1f1f1",
";; c #efefef",
"A; c #ececec",
"B; c #eaeaea",
"C; c #e8e8e8",
"D; c #e6e6e6",
"E; c #e4e4e4",
"F; c #e1e1e1",
"G; c #dfdfdf",
"H; c #dddddd",
"I; c #dadada",
"J; c #d8d8d8",
"K; c #d6d6d6",
"L; c #d4d4d4",
"M; c #d2d2d2",
"N; c #646661",
"O; c #8a8b88",
"P; c #a0a0a0",
"Q; c #8e8f8d",
"R; c #636560",
"S; c #646660",
"T; c #61635d",
"U; c #636660",
"                                                                                                ",
"                                                                                                ",
"                                                                                                ",
"                                                                                                ",
"                                                                                                ",
"                                                                                                ",
"        U;T;T;T;T;T;T;T;T;T;T;T;T;T;T;T;T;T;T;T;T;T;T;T;T;T;T;T;T;T;T;T;T;T;T;T;T;T;S;          ",
"      R;Q;P;P;P;P;P;P;P;P;P;P;P;P;P;P;P;P;P;P;P;P;P;P;P;P;P;P;P;P;P;P;P;P;P;P;P;P;P;O;N;        ",
"      R;M;L;K;J;I;H;G;F;E;D;C;B;A;;;:;9;8;7;6;5;4;5;3;2;1;0;z:y:A;x:w:v:u:t:s:r:q:p:o:n:        ",
"      R;o:m:m:l:l:l:l:l:l:l:l:l:l:k:k:k:k:k:k:k:k:k:k:k:k:k:k:k:l:l:l:l:l:l:l:l:l:j:M;n:        ",
"      i:h:g:f:f:f:f:f:f:f:f:f:f:f:f:f:f:f:f:f:f:f:f:f:f:f:f:f:f:f:f:f:f:f:f:f:f:e:l:o:T;        ",
"      d:h:c:b:a:Z:a:a:a:Z:Y:X:W:V:U:T:S:R:Q:P:O:N:M:L:L:K:J:I:H:G:N:F:E:D:C:B:A:b:m:h:;:        ",
"      ::9:8:b:7:6:5:4:3:2:1:5:0:z9y9x9w9v9u9t9s9P:r9q9p9o9n9m9l9k9j9i9h9g9f9e96:d9c9h:b9        ",
"      a99:Z9b:Y9X9W9V9U9U9T9S9R9Q9P9O9N9t9M9L9K9J9I9H9H9G9x9F9E9D9C9O:n9B9A9;9y9b::99989        ",
"      799969b:594939291909z8y8x8w8v8u8u8t8s8r8l9q8p8p8o8n8m8l8u9k8k9j8i8h8g8f8e8d9P;d8c8        ",
"      b89969b:U9H9a8s:Z8Y8X8W8V8U8T8S8R8Q8P8O8N8M8L8K8J8I8H8l9G8F8E8D8C8B8A8;8:8b:P;9888        ",
"      7899c:b:q968q:58q8p8483828q81808z7y7x7R8w7v7u7t7s708r7x7q7p7o7x9n7C9m7l7k7d9c998j7        ",
"      8899i7b:Y8h7g7f7e7L8d7c7b7a7Z7Y7X7W7V7U7T7S7R7R7Q7P7O7N7O8M7L7K7J7I7H728x8b:k:G7F7        ",
"      E799D7b:y8v7C728B7t7A7;7:79787776757473727271707z677y6x7x6w6v6u6t6s6r6q6p6o6j:G7n6        ",
"      m6d8l6k6j6K8i6b7a7h6g6f6e6d6c6b6a6Z6Y6X6W6W6V6U6T6b6W7S6R6Q6P6O6N6M6L6B7K6J6I6H6G6        ",
"      F6d8m:J6E6h6g6f6D6C6I;B6A6;6:69686766656463656261606z5y5x5w5v5u5t5s5r5q6q5o6p5H6o5        ",
"      G698j:J6b7n5R7m5l5d6k5j5i5h5g5x5f5Y6e5d5d5d5c5b5a5x5Z5Y5X5W5V5U5s7T5f6B7S5J6R5Q5P5        ",
"      O5d8I6J6N5e6M527L5K5J536I5H5G5F5E5b5D5H5H5C5B5A5;5F5:5g5f59587857565075545o635Q525        ",
"      15d8p5J605z4y4x4w4v4u4t4s4r4q4p4o4n4m4l4l4k4j4i4h4p4g4f4e4d4c4b4a4M5Z4Y405J6X4W4V4        ",
"      2598R5J645T5i5U446r456T4S4R4Q4Q4P4O4N4M4L4K4J4I4H4G4i4F4n4E4D4C4B4A4;4T5:4o6948474        ",
"      V49835J6y464544434241404z3y3x3x3w3M4v3u3t3s3r3q3p3o3n3m3l3k3A4j3i3h3g3x4y4J6f3e3d3        ",
"      7498X4J6c3b346r4a3H5Z3Y3X3W3V3V3s3U3T3S3R3I4Q3P3O3N3q3M3L3K3J3C556r436I3H3o6G3F3E3        ",
"      D398C3J6B3v4A3s414;3l4:393837363534333231303z2y2x2w2v2u2t2s2l4r2q2s4p2o2B3J6n2m2l2        ",
"      k298j2J6i5i2h2T4g2Y3f2e2d2c2b2b2a2Z2Y2X2W2V2U2T2S2R2Q2S3d2L4X3Y3g2T4A4P2U4o629m2O2        ",
"      l298n2J6v4N224M2z3L2K2v3J2M4I2H2H2G2F2E2D2C2B2A2;2:23392t282m4726252s4A3o2J6F34232        ",
"      O29822J6U4A412g2Y3N4I202z1y1x1w1v1u1t1s1r1q1p1o1n1w1m1y1z102I2l1Y3k1j1i1h1o6H6g1f1        ",
"      32G7F3J6e1d5d1;372c182b1a1Z1Y1G2X1W1V1U1T1U1V1W1X1G2Y1S1a1t282c1R1r2d1d5Q1J69922P1        ",
"      O1G7H6J6N156M1Z3l3L18373U3m1w1v1K1s1J1I1H1I1G1s1F1v1w1m1x25383E1l3Z3T4h2D1o6o:C1B1        ",
"      A1G799J6h3;114:172K2v3918171H2615141U1312111U1410161H2z0a1b1v3m472:1q2d5y0J6L;29x0        ",
"      w0G7M;J6U4h2T4C5l3M4v0u0x2t0Y2s0o1t1r0q0J1p0r1o0o1s0Y2t0n0u0v0M4Y3C5T4h2m0o6J;l0k0        ",
"      x0G7K;J6j0t4i0h0l4g0f0e0d0c0b0H2a0X1Z0W1Y0W1Z0X1X0H27143W0e0f0V0j3U0T034S0J6r:l0R0        ",
"      k0G7I;J6;4Q056H5P0l3E1v0u0S3O0m1w1N0v1M0L0M0v1R2Y2m1O0S3u0v0E1l3Z3H556K0N1o6G;J0I0        ",
"      H0G7s:J65444t4d104j3G0s2v3t2F043Z1E0Y1H2H2H2Y1E0Z143F0t2v3s2G0z3h0i0t444g3J6u:D0C0        ",
"      B0H6A0J6J6J6J6J6J6J6J6J6J6J6J6J6J6J6J6J6J6J6J6J6J6J6J6J6J6J6J6J6J6J6J6J6J6J6D;D0;0        ",
"      C0G79;D;:0:0w:w:w:90908080C;C;C;C;70707070707070C;C;C;80808090w:w:w:w::060w:B;n250        ",
"      C0X9L;L;L;L;L;L;L;L;L;L;L;L;L;L;L;L;L;L;L;L;L;L;L;L;L;L;L;L;L;L;L;L;L;L;L;L;409430        ",
"      20H0B0B0B0B0B0B0B0B0B0B0B0B0B0B0B0B0B0B0B0B0B0B0B0B0B0B0B0B0B0B0B0B0B0B0B0B0B0B01000      ",
"      00a:W:W:W:W:W:W:W:W:W:W:W:W:W:W:W:W:W:W:W:W:W:W:W:W:W:W:W:W:W:W:W:W:W:W:W:W:W:a:0000      ",
"          0000000000000000000000000000000000000000000000000000000000000000000000000000          ",
"                                                                                                ",
"                                                                                                ",
"                                                                                                ",
"                                                                                                "};
